<?xml version="1.0" standalone="no"?><!DOCTYPE svg PUBLIC "-//W3C//DTD SVG 1.1//EN" "http://www.w3.org/Graphics/SVG/1.1/DTD/svg11.dtd"><svg t="1566978989794" class="icon" viewBox="0 0 1024 1024" version="1.1" xmlns="http://www.w3.org/2000/svg" p-id="11303" width="32" height="32" xmlns:xlink="http://www.w3.org/1999/xlink"><defs><style type="text/css"></style></defs><path d="M240.8 814.3c-54.4 0-95.6 0-113.1-0.2-15.7-0.1-29.5-10.7-33.6-25.9-4.1-15.2 2.5-31.3 16.1-39.3 55.8-32.7 85.5-110.8 100.6-170.5 16.4-64.6 19.3-121.6 19.6-127.8 0-75 29.3-145.5 82.3-198.5 53.1-53.1 123.6-82.3 198.7-82.3 75 0 145.6 29.2 198.7 82.3 53 53 82.2 123.5 82.3 198.4 0.4 6.8 3.9 64.5 20.6 129 15.4 59.3 45.4 136.9 100.9 169.5 13.6 8 20.2 24.2 16 39.5-4.2 15.2-18 25.7-33.7 25.7h-0.2c-41-0.3-215.1-0.1-383.4 0-97.8 0-197.3 0.1-271.8 0.1z m-26.2-70c76.3 0 188.3-0.1 297.8-0.2 109.1-0.1 220.6-0.2 296.8-0.2-6.8-9.6-13.3-19.8-19.4-30.8-18.3-32.9-33.4-72.4-45-117.4-18.4-71.4-22-133.5-22.4-142-0.1-0.8-0.1-1.6-0.1-2.4v-0.8c-0.1-116.2-94.7-210.8-211-210.8-116.2 0-210.8 94.5-211 210.7v0.7c0 0.8 0 1.5-0.1 2.3-0.4 8.5-3.6 70.6-21.7 142.1-11.4 45-26.4 84.5-44.5 117.5-6 11.2-12.6 21.6-19.4 31.3z" p-id="11304"></path><path d="M512 941.8c-89.9 0-163-73.1-163-163 0-19.3 15.7-35 35-35s35 15.7 35 35c0 51.3 41.7 93 93 93s93-41.7 93-93c0-19.3 15.7-35 35-35s35 15.7 35 35c0 89.9-73.1 163-163 163zM575.8 216c-19.3 0-35-15.7-35-35 0-15.9-12.9-28.8-28.8-28.8s-28.8 12.9-28.8 28.8c0 19.3-15.7 35-35 35s-35-15.7-35-35c0-54.5 44.3-98.8 98.8-98.8s98.8 44.3 98.8 98.8c0 19.4-15.7 35-35 35z" p-id="11305"></path></svg>