<?xml version="1.0" standalone="no"?><!DOCTYPE svg PUBLIC "-//W3C//DTD SVG 1.1//EN" "http://www.w3.org/Graphics/SVG/1.1/DTD/svg11.dtd"><svg t="1566979338613" class="icon" viewBox="0 0 1024 1024" version="1.1" xmlns="http://www.w3.org/2000/svg" p-id="15034" xmlns:xlink="http://www.w3.org/1999/xlink" width="32" height="32"><defs><style type="text/css"></style></defs><path d="M482.9 948c3.7 4.9 8.6 8.8 14.5 11.2 13.1 5.4 28.1 2.5 38.1-7.5l128.5-128c13.7-13.6 13.7-35.8 0.1-49.5-13.6-13.7-35.8-13.7-49.5-0.1l-68.7 68.5 0.4-393.1c0-19.3-15.6-35-35-35-19.3 0-35 15.6-35 35l-0.4 392.9-67.4-67.4c-6.8-6.8-15.8-10.2-24.7-10.2-9 0-18 3.4-24.8 10.3-13.6 13.7-13.6 35.9 0.1 49.5L482.9 948z" p-id="15035"></path><path d="M905.9 360.8c-33.3-33.3-75.6-54.4-121.4-61-7.1-61.1-34.3-117.7-78.5-161.9-51.9-51.8-120.7-80.4-194-80.4S369.9 86 318.1 137.8c-44.2 44.2-71.4 100.7-78.5 161.9-45.8 6.6-88.1 27.7-121.4 61-40.8 40.8-63.3 95.1-63.3 152.8 0 57.7 22.5 112 63.3 152.8 40.8 40.8 95.1 63.3 152.8 63.3 19.3 0 35-15.7 35-35s-15.7-35-35-35c-80.6 0-146.1-65.5-146.1-146.1S190.4 367.4 271 367.4h1.5c9.4 0.1 18.4-3.6 25-10.2 6.6-6.6 10.4-15.6 10.3-25v-0.7c0.1-112.6 91.7-204.1 204.3-204.1 112.6 0 204.2 91.5 204.3 204.1v0.9c0 9.3 3.7 18.3 10.4 24.9 6.6 6.5 15.4 10.1 24.6 10.1h1.7c80.6 0 146.1 65.5 146.1 146.1s-65.5 146.1-146.1 146.1c-19.3 0-35 15.7-35 35s15.7 35 35 35c57.7 0 112-22.5 152.8-63.3s63.3-95.1 63.3-152.8c0-57.7-22.5-111.9-63.3-152.7z" p-id="15036"></path></svg>