<?xml version="1.0" standalone="no"?><!DOCTYPE svg PUBLIC "-//W3C//DTD SVG 1.1//EN" "http://www.w3.org/Graphics/SVG/1.1/DTD/svg11.dtd"><svg t="1566985895956" class="icon" viewBox="0 0 1024 1024" version="1.1" xmlns="http://www.w3.org/2000/svg" p-id="6191" xmlns:xlink="http://www.w3.org/1999/xlink" width="32" height="32"><defs><style type="text/css"></style></defs><path d="M513 449.7m-430.2 0a430.2 430.2 0 1 0 860.4 0 430.2 430.2 0 1 0-860.4 0Z" fill="#F2CF3D" p-id="6192"></path><path d="M513 889.9c-59.4 0-117.1-11.6-171.3-34.6-52.4-22.2-99.5-53.9-139.9-94.3-40.4-40.4-72.2-87.5-94.3-139.9-23-54.3-34.6-111.9-34.6-171.3s11.6-117.1 34.6-171.3c22.2-52.4 53.9-99.5 94.3-139.9 40.4-40.4 87.5-72.2 139.9-94.3C395.9 21.1 453.6 9.5 513 9.5s117.1 11.6 171.3 34.6c52.4 22.2 99.5 53.9 139.9 94.3 40.4 40.4 72.2 87.5 94.3 139.9 23 54.3 34.6 111.9 34.6 171.3S941.6 566.7 918.6 621c-22.2 52.4-53.9 99.5-94.3 139.9s-87.5 72.2-139.9 94.3c-54.3 23-112 34.7-171.4 34.7z m0-860.4c-56.7 0-111.8 11.1-163.6 33-50 21.2-95 51.5-133.6 90.1s-68.9 83.5-90.1 133.6c-21.9 51.8-33 106.8-33 163.6s11.1 111.8 33 163.6c21.2 50 51.5 95 90.1 133.6 38.6 38.6 83.5 68.9 133.6 90.1 51.8 21.9 106.8 33 163.6 33s111.8-11.1 163.6-33c50-21.2 95-51.5 133.6-90.1 38.6-38.6 68.9-83.5 90.1-133.6 21.9-51.8 33-106.8 33-163.6s-11.1-111.8-33-163.6c-21.2-50-51.5-95-90.1-133.6s-83.5-68.9-133.6-90.1c-51.8-21.9-106.9-33-163.6-33z" fill="#231815" p-id="6193"></path><path d="M513 415.2m-395.7 0a395.7 395.7 0 1 0 791.4 0 395.7 395.7 0 1 0-791.4 0Z" fill="#FFE20D" p-id="6194"></path><path d="M513 889.9c-59.4 0-117.1-11.6-171.3-34.6-52.4-22.2-99.5-53.9-139.9-94.3-40.4-40.4-72.2-87.5-94.3-139.9-23-54.3-34.6-111.9-34.6-171.3s11.6-117.1 34.6-171.3c22.2-52.4 53.9-99.5 94.3-139.9 40.4-40.4 87.5-72.2 139.9-94.3C395.9 21.1 453.6 9.5 513 9.5s117.1 11.6 171.3 34.6c52.4 22.2 99.5 53.9 139.9 94.3 40.4 40.4 72.2 87.5 94.3 139.9 23 54.3 34.6 111.9 34.6 171.3S941.6 566.7 918.6 621c-22.2 52.4-53.9 99.5-94.3 139.9s-87.5 72.2-139.9 94.3c-54.3 23-112 34.7-171.4 34.7z m0-860.4c-56.7 0-111.8 11.1-163.6 33-50 21.2-95 51.5-133.6 90.1s-68.9 83.5-90.1 133.6c-21.9 51.8-33 106.8-33 163.6s11.1 111.8 33 163.6c21.2 50 51.5 95 90.1 133.6 38.6 38.6 83.5 68.9 133.6 90.1 51.8 21.9 106.8 33 163.6 33s111.8-11.1 163.6-33c50-21.2 95-51.5 133.6-90.1 38.6-38.6 68.9-83.5 90.1-133.6 21.9-51.8 33-106.8 33-163.6s-11.1-111.8-33-163.6c-21.2-50-51.5-95-90.1-133.6s-83.5-68.9-133.6-90.1c-51.8-21.9-106.9-33-163.6-33z" fill="#231815" p-id="6195"></path><path d="M376.3 123a136.7 44.2 0 1 0 273.4 0 136.7 44.2 0 1 0-273.4 0Z" fill="#FFF0B3" p-id="6196"></path><path d="M513 621.2c-69.6 0-134.7-8.3-190.8-22.6-20.2-5.2-39.3 12-35 31.7 22.1 100.5 114.8 176 225.7 176s203.6-75.4 225.7-176c4.3-19.7-14.8-36.9-35-31.7-55.9 14.4-121 22.6-190.6 22.6z" fill="#FFA6D7" p-id="6197"></path><path d="M513 816.3c-55.4 0-109.6-18.6-152.4-52.4-42.3-33.4-71.8-80.1-83.1-131.4-2.7-12.3 1.2-25 10.4-33.9 9.8-9.5 23.6-13.1 36.8-9.7 56.9 14.6 122 22.3 188.3 22.3s131.4-7.7 188.3-22.3c13.3-3.4 27 0.2 36.8 9.7 9.2 8.9 13.1 21.6 10.4 33.9-11.3 51.3-40.8 98-83.1 131.4-42.8 33.8-97 52.4-152.4 52.4zM314.9 607.7c-4.9 0-9.5 1.8-13.1 5.3-4.3 4.1-6 9.7-4.8 15.2 10.3 46.8 37.3 89.4 76 120 39.3 31 89 48.1 140 48.1s100.7-17.1 140-48.1c38.7-30.6 65.7-73.2 76-120 1.2-5.5-0.5-11.1-4.8-15.2-4.8-4.6-11.5-6.3-17.9-4.7-58.5 15-125.3 23-193.2 23-67.9 0-134.7-7.9-193.2-23-1.8-0.4-3.4-0.6-5-0.6z" fill="#231815" p-id="6198"></path><path d="M661.5 754.1C621.3 721.6 569.6 702 513 702s-108.3 19.6-148.5 52.2c40.1 32.5 91.9 52.2 148.5 52.2s108.3-19.7 148.5-52.3z" fill="#FF66C1" p-id="6199"></path><path d="M513 816.3c-56.5 0-111.5-19.3-154.8-54.4-2.3-1.9-3.7-4.8-3.7-7.8s1.4-5.9 3.7-7.8c43.3-35 98.3-54.3 154.8-54.3 56.5 0 111.5 19.3 154.8 54.4 2.3 1.9 3.7 4.8 3.7 7.8s-1.4 5.9-3.7 7.8c-43.3 35-98.3 54.3-154.8 54.3z m-132-62.2c38 27.3 84.4 42.2 132 42.2 47.6 0 94-14.9 132-42.2-38-27.3-84.4-42.2-132-42.2-47.6 0.1-94 15-132 42.2z" fill="#231815" p-id="6200"></path><path d="M226.4 556.4a50.9 31.5 0 1 0 101.8 0 50.9 31.5 0 1 0-101.8 0Z" fill="#FFA178" p-id="6201"></path><path d="M697.8 556.4a50.9 31.5 0 1 0 101.8 0 50.9 31.5 0 1 0-101.8 0Z" fill="#FFA178" p-id="6202"></path><path d="M177.1 975.7a335.9 34.4 0 1 0 671.8 0 335.9 34.4 0 1 0-671.8 0Z" fill="#E5E5E5" p-id="6203"></path><path d="M302.8 218.2l53 97.1 97.1 53.1-97.1 53.1-53 97.1-53.1-97.1-97.1-53.1 97.1-53.1z" fill="#FFFFFF" p-id="6204"></path><path d="M302.8 528.6c-3.7 0-7-2-8.8-5.2l-51.7-94.5-94.5-51.7c-3.2-1.8-5.2-5.1-5.2-8.8s2-7 5.2-8.8l94.5-51.7 51.7-94.5c1.8-3.2 5.1-5.2 8.8-5.2s7 2 8.8 5.2l51.7 94.5 94.5 51.7c3.2 1.8 5.2 5.1 5.2 8.8s-2 7-5.2 8.8l-94.5 51.7-51.7 94.5c-1.8 3.2-5.2 5.2-8.8 5.2zM173.4 368.4l81 44.3c1.7 0.9 3.1 2.3 4 4l44.3 81 44.3-81c0.9-1.7 2.3-3.1 4-4l81-44.3-81-44.3c-1.7-0.9-3.1-2.3-4-4l-44.3-81-44.3 81c-0.9 1.7-2.3 3.1-4 4l-81 44.3z" fill="#231815" p-id="6205"></path><path d="M723.2 218.2l53.1 97.1 97.1 53.1-97.1 53.1-53.1 97.1-53-97.1-97.1-53.1 97.1-53.1z" fill="#FFFFFF" p-id="6206"></path><path d="M723.2 528.6c-3.7 0-7-2-8.8-5.2l-51.7-94.5-94.5-51.7c-3.2-1.8-5.2-5.1-5.2-8.8s2-7 5.2-8.8l94.5-51.7 51.7-94.5c1.8-3.2 5.1-5.2 8.8-5.2 3.7 0 7 2 8.8 5.2l51.7 94.5 94.5 51.7c3.2 1.8 5.2 5.1 5.2 8.8s-2 7-5.2 8.8l-94.5 51.7-51.7 94.5c-1.7 3.2-5.1 5.2-8.8 5.2zM593.9 368.4l81 44.3c1.7 0.9 3.1 2.3 4 4l44.3 81 44.3-81c0.9-1.7 2.3-3.1 4-4l81-44.3-81-44.3c-1.7-0.9-3.1-2.3-4-4l-44.3-81-44.3 81c-0.9 1.7-2.3 3.1-4 4l-81 44.3z" fill="#231815" p-id="6207"></path></svg>