<?xml version="1.0" standalone="no"?><!DOCTYPE svg PUBLIC "-//W3C//DTD SVG 1.1//EN" "http://www.w3.org/Graphics/SVG/1.1/DTD/svg11.dtd"><svg t="1566985711582" class="icon" viewBox="0 0 1024 1024" version="1.1" xmlns="http://www.w3.org/2000/svg" p-id="5904" xmlns:xlink="http://www.w3.org/1999/xlink" width="32" height="32"><defs><style type="text/css"></style></defs><path d="M513 448.3m-429.3 0a429.3 429.3 0 1 0 858.6 0 429.3 429.3 0 1 0-858.6 0Z" fill="#F2CF3D" p-id="5905"></path><path d="M513 887.5c-59.3 0-116.8-11.6-171-34.5-52.3-22.1-99.3-53.8-139.6-94.1s-72-87.3-94.1-139.6c-22.9-54.2-34.5-111.7-34.5-171s11.6-116.8 34.5-171c22.1-52.3 53.8-99.3 94.1-139.6s87.3-72 139.6-94.1C396.2 20.6 453.7 9 513 9s116.8 11.6 171 34.5c52.3 22.1 99.3 53.8 139.6 94.1s72 87.3 94.1 139.6c22.9 54.2 34.5 111.7 34.5 171s-11.6 116.8-34.5 171c-22.1 52.3-53.8 99.3-94.1 139.6s-87.3 72-139.6 94.1c-54.2 23-111.7 34.6-171 34.6zM513 29c-56.6 0-111.5 11.1-163.2 32.9-49.9 21.1-94.8 51.3-133.3 89.9-38.5 38.5-68.7 83.3-89.9 133.3-21.9 51.7-32.9 106.6-32.9 163.2 0 56.6 11.1 111.5 32.9 163.2 21.1 49.9 51.3 94.8 89.9 133.3 38.5 38.5 83.3 68.7 133.3 89.9 51.7 21.9 106.6 32.9 163.2 32.9 56.6 0 111.5-11.1 163.2-32.9 49.9-21.1 94.8-51.3 133.3-89.9s68.7-83.3 89.9-133.3c21.9-51.7 32.9-106.6 32.9-163.2 0-56.6-11.1-111.5-32.9-163.2-21.1-49.9-51.3-94.8-89.9-133.3-38.5-38.5-83.3-68.7-133.3-89.9C624.5 40.1 569.6 29 513 29z" fill="#231815" p-id="5906"></path><path d="M513 413.8m-394.8 0a394.8 394.8 0 1 0 789.6 0 394.8 394.8 0 1 0-789.6 0Z" fill="#FFE20D" p-id="5907"></path><path d="M513 887.5c-59.3 0-116.8-11.6-171-34.5-52.3-22.1-99.3-53.8-139.6-94.1s-72-87.3-94.1-139.6c-22.9-54.2-34.5-111.7-34.5-171s11.6-116.8 34.5-171c22.1-52.3 53.8-99.3 94.1-139.6s87.3-72 139.6-94.1C396.2 20.6 453.7 9 513 9s116.8 11.6 171 34.5c52.3 22.1 99.3 53.8 139.6 94.1s72 87.3 94.1 139.6c22.9 54.2 34.5 111.7 34.5 171s-11.6 116.8-34.5 171c-22.1 52.3-53.8 99.3-94.1 139.6s-87.3 72-139.6 94.1c-54.2 23-111.7 34.6-171 34.6zM513 29c-56.6 0-111.5 11.1-163.2 32.9-49.9 21.1-94.8 51.3-133.3 89.9-38.5 38.5-68.7 83.3-89.9 133.3-21.9 51.7-32.9 106.6-32.9 163.2 0 56.6 11.1 111.5 32.9 163.2 21.1 49.9 51.3 94.8 89.9 133.3 38.5 38.5 83.3 68.7 133.3 89.9 51.7 21.9 106.6 32.9 163.2 32.9 56.6 0 111.5-11.1 163.2-32.9 49.9-21.1 94.8-51.3 133.3-89.9s68.7-83.3 89.9-133.3c21.9-51.7 32.9-106.6 32.9-163.2 0-56.6-11.1-111.5-32.9-163.2-21.1-49.9-51.3-94.8-89.9-133.3-38.5-38.5-83.3-68.7-133.3-89.9C624.5 40.1 569.6 29 513 29z" fill="#231815" p-id="5908"></path><path d="M376.6 122.3a136.4 44.1 0 1 0 272.8 0 136.4 44.1 0 1 0-272.8 0Z" fill="#FFF0B3" p-id="5909"></path><path d="M311.3 426.8m-35.5 0a35.5 35.5 0 1 0 71 0 35.5 35.5 0 1 0-71 0Z" fill="#231815" p-id="5910"></path><path d="M714.7 426.8m-35.5 0a35.5 35.5 0 1 0 71 0 35.5 35.5 0 1 0-71 0Z" fill="#231815" p-id="5911"></path><path d="M513 626.1c-41.9 0-81.2-7.9-114.9-21.8-12.2-5-23.7 11.6-21.1 30.5C390.3 731.5 446.1 804 513 804s122.7-72.6 136-169.2c2.6-18.9-8.9-35.5-21.1-30.5-33.7 13.9-73 21.8-114.9 21.8z" fill="#FFA6D7" p-id="5912"></path><path d="M513 814.1c-35.2 0-69.2-18.5-95.9-52.1-25.5-32.1-43.3-76.8-50-125.7-2.1-15.1 3.1-30.3 12.9-37.9 6.6-5.1 14.5-6.3 21.9-3.2 33.6 13.8 72 21 111.1 21 39.1 0 77.6-7.3 111.1-21 7.4-3 15.4-1.8 21.9 3.2 9.8 7.6 14.9 22.8 12.9 37.9-6.8 48.9-24.5 93.6-50 125.7-26.7 33.6-60.7 52.1-95.9 52.1zM393.7 613.5c-0.3 0-0.8 0.2-1.5 0.7-3.5 2.7-6.5 10.4-5.3 19.3 12.8 93.1 65.9 160.6 126.1 160.6 60.2 0 113.2-67.5 126.1-160.6 1.2-8.9-1.8-16.6-5.3-19.3-1.2-0.9-1.7-0.7-2.1-0.5-36 14.7-77 22.5-118.7 22.5s-82.8-7.8-118.7-22.5c-0.2-0.2-0.4-0.2-0.6-0.2z" fill="#231815" p-id="5913"></path><path d="M227 554.8a50.8 31.5 0 1 0 101.6 0 50.8 31.5 0 1 0-101.6 0Z" fill="#FFA178" p-id="5914"></path><path d="M697.4 554.8a50.8 31.5 0 1 0 101.6 0 50.8 31.5 0 1 0-101.6 0Z" fill="#FFA178" p-id="5915"></path><path d="M177.8 973.2a335.2 34.3 0 1 0 670.4 0 335.2 34.3 0 1 0-670.4 0Z" fill="#E5E5E5" p-id="5916"></path><path d="M513 901.9c-36.7 0-66.7-29.9-66.7-66.5V723.8c0-36.6 30-5.2 66.7-5.2s66.7-31.4 66.7 5.2v111.6c0 36.6-30 66.5-66.7 66.5z" fill="#FC5965" p-id="5917"></path><path d="M513 911.9c-42.3 0-76.7-34.3-76.7-76.5V723.8c0-7.6 0.9-18.3 9.1-24.2 9.3-6.7 20.8-2.8 34.2 1.7 10.1 3.4 21.6 7.3 33.4 7.3 11.9 0 23.3-3.9 33.4-7.3 13.3-4.5 24.9-8.4 34.2-1.7 8.2 5.9 9.1 16.6 9.1 24.2v111.6c0 42.2-34.4 76.5-76.7 76.5zM457.2 716c-0.3 0.9-0.9 3.1-0.9 7.8v111.6c0 31.2 25.4 56.5 56.7 56.5 31.3 0 56.7-25.4 56.7-56.5V723.8c0-4.7-0.6-6.9-0.9-7.8-3-0.1-10.7 2.5-16 4.2-11 3.7-24.7 8.3-39.8 8.3-15.1 0-28.8-4.6-39.8-8.3-5.3-1.7-13-4.3-16-4.2z" fill="#231815" p-id="5918"></path><path d="M513 752.1c-36.7 0-66.7 20-66.7 11.5v-53.2c0-8.6 30 4.5 66.7 4.5s66.7-13.1 66.7-4.5v53.2c0 8.6-30-11.5-66.7-11.5z" fill="#F9919D" p-id="5919"></path><path d="M513 901.1c-42.3 0-76.7-32.7-76.7-72.9V722.8c0-4.1 0-16.6 8.8-23.1 9.2-6.7 20.8-3 34.3 1.3 10.1 3.2 21.6 6.9 33.6 6.9s23.4-3.7 33.6-6.9c13.5-4.3 25.1-8 34.3-1.3 8.8 6.5 8.8 19 8.8 23.1v105.5c0 40.1-34.4 72.8-76.7 72.8zM457 716c-0.3 0.8-0.8 2.8-0.8 6.8v105.5c0 29.1 25.4 52.9 56.7 52.9 31.3 0 56.7-23.7 56.7-52.9V722.8c0-4-0.5-5.9-0.8-6.8-3-0.2-10.9 2.3-16.3 4-11 3.5-24.6 7.8-39.7 7.8-15 0-28.7-4.3-39.7-7.8-5.1-1.6-13-4.2-16.1-4z" fill="#231815" p-id="5920"></path></svg>