<?xml version="1.0" standalone="no"?><!DOCTYPE svg PUBLIC "-//W3C//DTD SVG 1.1//EN" "http://www.w3.org/Graphics/SVG/1.1/DTD/svg11.dtd"><svg t="1557383931513" class="icon" style="" viewBox="0 0 1024 1024" version="1.1" xmlns="http://www.w3.org/2000/svg" p-id="2353" xmlns:xlink="http://www.w3.org/1999/xlink" width="32" height="32"><defs><style type="text/css"></style></defs><path d="M476.1 450.2m-428.1 0a428.1 428.1 0 1 0 856.2 0 428.1 428.1 0 1 0-856.2 0Z" fill="#F2CF3D" p-id="2354"></path><path d="M476.1 888.4c-59.1 0-116.5-11.6-170.5-34.4-52.2-22.1-99-53.7-139.3-93.9-40.2-40.2-71.8-87.1-93.9-139.3C49.6 566.8 38 509.4 38 450.2s11.6-116.5 34.4-170.5c22.1-52.2 53.7-99 93.9-139.3s87.1-71.8 139.3-93.9c54-22.8 111.4-34.4 170.5-34.4 59.1 0 116.5 11.6 170.5 34.4 52.2 22.1 99 53.7 139.3 93.9s71.8 87.1 93.9 139.3c22.8 54 34.4 111.4 34.4 170.5s-11.6 116.5-34.4 170.5c-22.1 52.2-53.7 99-93.9 139.3-40.2 40.2-87.1 71.8-139.3 93.9-53.9 22.9-111.3 34.5-170.5 34.5z m0-856.3c-56.5 0-111.2 11.1-162.8 32.9-49.8 21.1-94.5 51.2-132.9 89.6-38.4 38.4-68.6 83.1-89.6 132.9C69.1 339 58 393.8 58 450.2S69.1 561.4 90.9 613c21.1 49.8 51.2 94.5 89.6 132.9 38.4 38.4 83.1 68.6 132.9 89.6 51.5 21.8 106.3 32.9 162.8 32.9 56.5 0 111.2-11.1 162.8-32.9 49.8-21.1 94.5-51.2 132.9-89.6s68.6-83.1 89.6-132.9c21.8-51.5 32.9-106.3 32.9-162.8s-11.2-111.2-33-162.7c-21.1-49.8-51.2-94.5-89.6-132.9C733.4 116.2 688.7 86 638.9 65c-51.5-21.8-106.3-32.9-162.8-32.9z" fill="#231815" p-id="2355"></path><path d="M476.1 415.9m-393.8 0a393.8 393.8 0 1 0 787.6 0 393.8 393.8 0 1 0-787.6 0Z" fill="#FFE20D" p-id="2356"></path><path d="M476.1 888.4c-59.1 0-116.5-11.6-170.5-34.4-52.2-22.1-99-53.7-139.3-93.9-40.2-40.2-71.8-87.1-93.9-139.3C49.6 566.8 38 509.4 38 450.2s11.6-116.5 34.4-170.5c22.1-52.2 53.7-99 93.9-139.3s87.1-71.8 139.3-93.9c54-22.8 111.4-34.4 170.5-34.4 59.1 0 116.5 11.6 170.5 34.4 52.2 22.1 99 53.7 139.3 93.9s71.8 87.1 93.9 139.3c22.8 54 34.4 111.4 34.4 170.5s-11.6 116.5-34.4 170.5c-22.1 52.2-53.7 99-93.9 139.3-40.2 40.2-87.1 71.8-139.3 93.9-53.9 22.9-111.3 34.5-170.5 34.5z m0-856.3c-56.5 0-111.2 11.1-162.8 32.9-49.8 21.1-94.5 51.2-132.9 89.6-38.4 38.4-68.6 83.1-89.6 132.9C69.1 339 58 393.8 58 450.2S69.1 561.4 90.9 613c21.1 49.8 51.2 94.5 89.6 132.9 38.4 38.4 83.1 68.6 132.9 89.6 51.5 21.8 106.3 32.9 162.8 32.9 56.5 0 111.2-11.1 162.8-32.9 49.8-21.1 94.5-51.2 132.9-89.6s68.6-83.1 89.6-132.9c21.8-51.5 32.9-106.3 32.9-162.8s-11.2-111.2-33-162.7c-21.1-49.8-51.2-94.5-89.6-132.9C733.4 116.2 688.7 86 638.9 65c-51.5-21.8-106.3-32.9-162.8-32.9z" fill="#231815" p-id="2357"></path><path d="M340.1 125.1a136 44 0 1 0 272 0 136 44 0 1 0-272 0Z" fill="#FFF0B3" p-id="2358"></path><path d="M190.9 556.5a50.7 31.4 0 1 0 101.4 0 50.7 31.4 0 1 0-101.4 0Z" fill="#FFA178" p-id="2359"></path><path d="M660 556.5a50.7 31.4 0 1 0 101.4 0 50.7 31.4 0 1 0-101.4 0Z" fill="#FFA178" p-id="2360"></path><path d="M276.5 491.7c-5.5 0-10-4.5-10-10 0-13.8-11.2-24.9-24.9-24.9s-24.9 11.2-24.9 24.9c0 5.5-4.5 10-10 10s-10-4.5-10-10c0-24.8 20.2-44.9 44.9-44.9s44.9 20.2 44.9 44.9c0 5.5-4.5 10-10 10zM745.7 491.7c-5.5 0-10-4.5-10-10 0-13.8-11.2-24.9-24.9-24.9s-24.9 11.2-24.9 24.9c0 5.5-4.5 10-10 10s-10-4.5-10-10c0-24.8 20.2-44.9 44.9-44.9 24.8 0 44.9 20.2 44.9 44.9 0 5.5-4.5 10-10 10z" fill="#231815" p-id="2361"></path><path d="M567.6 753.2s-68.6 12.9-91.4 12.9-91.4-12.9-91.4-12.9c-58.8-16.5-92.9-60.8-92.9-103.6s41.8-52.1 92.9-52.1c0 0 68.6 12.9 91.4 12.9s91.4-12.9 91.4-12.9c51.1 0 92.9 9.3 92.9 52.1s-42.2 83.1-92.9 103.6z" fill="#FCFCFC" p-id="2362"></path><path d="M476.1 776.1c-23.5 0-90.5-12.5-93.3-13-0.3-0.1-0.6-0.1-0.9-0.2-29.9-8.4-55.3-24-73.4-45-17.3-20.1-26.8-44.4-26.8-68.2 0-24 11.1-41.2 33.1-51.2 16.3-7.4 38.5-10.9 69.7-10.9 0.6 0 1.2 0.1 1.8 0.2 0.7 0.1 67.9 12.7 89.6 12.7 21.7 0 88.9-12.6 89.6-12.7 0.6-0.1 1.2-0.2 1.8-0.2 31.3 0 53.4 3.5 69.7 10.9 22 10 33.1 27.3 33.1 51.2 0 22.8-10.4 46-30.1 67-17.5 18.6-42 34.9-69 45.9-0.6 0.2-1.3 0.4-1.9 0.6-2.5 0.4-69.4 12.9-93 12.9zM387 743.5c5.8 1.1 68.4 12.6 89.2 12.6 20.2 0 80.2-11 88.6-12.5 24-9.9 45.6-24.3 61-40.7 16.2-17.2 24.7-35.7 24.7-53.3 0-20.7-9.8-41.9-82-42.1-8.7 1.6-70 12.9-92.4 12.9-22.3 0-83.7-11.3-92.4-12.9-72.2 0.2-82 21.4-82 42.1 0 19.1 7.8 38.7 22 55.2 15.5 18 37.4 31.3 63.3 38.7z" fill="#231815" p-id="2363"></path><path d="M358.6 743.9c-0.9 0-1.9-0.1-2.8-0.4-5.3-1.5-8.3-7.1-6.8-12.4l39.1-133.9c1.5-5.3 7.1-8.3 12.4-6.8 5.3 1.5 8.3 7.1 6.8 12.4l-39.1 133.9c-1.3 4.4-5.3 7.2-9.6 7.2zM593.7 748.8c-4.3 0-8.3-2.8-9.6-7.2L545 607.7c-1.5-5.3 1.5-10.9 6.8-12.4s10.9 1.5 12.4 6.8L603.3 736c1.5 5.3-1.5 10.9-6.8 12.4-0.9 0.2-1.9 0.4-2.8 0.4z" fill="#231815" p-id="2364"></path><path d="M476.1 763.2c-5.5 0-10-4.5-10-10V610.4c0-5.5 4.5-10 10-10s10 4.5 10 10v142.8c0 5.6-4.4 10-10 10z" fill="#231815" p-id="2365"></path><path d="M141.8 967.3a334.3 34.2 0 1 0 668.6 0 334.3 34.2 0 1 0-668.6 0Z" fill="#E5E5E5" p-id="2366"></path><path d="M478.8 693.4c-25.4 0-51.1-1.8-76.7-5.4-68.5-9.6-112.4-28.4-114.3-29.2-5.1-2.2-7.4-8.1-5.2-13.2s8.1-7.4 13.2-5.2c14.9 6.4 56.9 20.5 109.7 27.9 38.6 5.4 77.4 6.5 115.2 3.4 47.1-3.9 92.9-14.4 136.1-31.4 5.1-2 10.9 0.5 13 5.7s-0.5 10.9-5.7 13c-45.1 17.7-93 28.7-142.2 32.7-14.2 1.1-28.7 1.7-43.1 1.7z" fill="#231815" p-id="2367"></path><path d="M865.1 497.4l39.9 73.1 73 39.9-73 39.9-39.9 73-40-73-73-39.9 73-39.9z" fill="#FFFFFF" p-id="2368"></path><path d="M865.1 733.3c-3.7 0-7-2-8.8-5.2l-38.5-70.4-70.4-38.5c-3.2-1.8-5.2-5.1-5.2-8.8s2-7 5.2-8.8l70.4-38.5 38.5-70.4c1.8-3.2 5.1-5.2 8.8-5.2s7 2 8.8 5.2l38.5 70.4 70.4 38.5c3.2 1.8 5.2 5.1 5.2 8.8s-2 7-5.2 8.8l-70.4 38.5-38.5 70.4c-1.8 3.2-5.2 5.2-8.8 5.2zM773 610.4l57 31.2c1.7 0.9 3.1 2.3 4 4l31.2 57 31.2-57c0.9-1.7 2.3-3.1 4-4l57-31.2-57-31.2c-1.7-0.9-3.1-2.3-4-4l-31.2-57-31.2 57c-0.9 1.7-2.3 3.1-4 4l-57 31.2z" fill="#231815" p-id="2369"></path></svg>