<?xml version="1.0" standalone="no"?><!DOCTYPE svg PUBLIC "-//W3C//DTD SVG 1.1//EN" "http://www.w3.org/Graphics/SVG/1.1/DTD/svg11.dtd"><svg t="1566979012645" class="icon" viewBox="0 0 1024 1024" version="1.1" xmlns="http://www.w3.org/2000/svg" p-id="11660" xmlns:xlink="http://www.w3.org/1999/xlink" width="32" height="32"><defs><style type="text/css"></style></defs><path d="M511 944.3c-7 0-13.7-2-19.5-5.9-85.4-57.2-145.4-100-194.5-138.8-56.7-44.8-98.4-83.9-131-123.1-34.7-41.6-59.3-83.7-75.2-128.8-15.5-44-23.2-92.6-23.7-148.5v-0.3c0-47 13.6-92.5 39.4-131.8 26-39.6 62.3-69.8 105.2-87.4 27.5-11.3 56.9-17 87.3-17 22.4 0 45.1 3.1 67.7 9.3 48.3 13.2 95.7 40 141.1 79.6l3.3 2.9 3.3-2.8c45.9-39.7 93.7-66.5 142-79.7 22.5-6.1 45.3-9.2 67.5-9.2 30.6 0 60 5.8 87.5 17.2 42.6 17.7 78.7 47.9 104.4 87.5 25.4 39.1 38.9 84.6 38.9 131.4v0.2c0.5 55.9-6.6 104.4-21.6 148.5-15.4 45.3-39.8 87.6-74.6 129.2-32.7 39.3-74.6 78.4-131.8 123.2-49.7 38.9-110.3 81.7-196.6 138.6-5.6 3.7-12.2 5.7-19.1 5.7zM299.1 232.6c-21.3 0-41.8 4-60.8 11.8-60.5 24.9-101.1 86.9-101.2 154.4 0.8 96.1 24.7 163.6 82.6 232.9 65.1 78 177.2 158.4 288.6 233.7l2.8 1.9 2.8-1.9c190.4-126.9 252.3-187.2 291-233.5 57.6-69.1 80.8-136.5 79.9-232.6v-0.3c0-67.5-40.3-129.6-100.2-154.5-18.9-7.8-39.3-11.8-60.7-11.8-16.1 0-32.6 2.3-49.1 6.8-46.6 12.7-93.4 42.2-139.1 87.9-6.6 6.6-15.4 10.2-24.7 10.2h-0.1c-9.2 0-18.3-3.8-24.8-10.4-45.1-45.5-91.4-75-137.8-87.7-16.5-4.6-33-6.9-49.2-6.9z" p-id="11661"></path></svg>