<?xml version="1.0" standalone="no"?><!DOCTYPE svg PUBLIC "-//W3C//DTD SVG 1.1//EN" "http://www.w3.org/Graphics/SVG/1.1/DTD/svg11.dtd"><svg t="1566979324058" class="icon" viewBox="0 0 1024 1024" version="1.1" xmlns="http://www.w3.org/2000/svg" p-id="14738" xmlns:xlink="http://www.w3.org/1999/xlink" width="32" height="32"><defs><style type="text/css"></style></defs><path d="M596.2 945.6c-7.2 0-14.3-2.2-20.3-6.5-8-5.7-13.2-14.4-14.4-24-3.2-24.7-24.5-43.4-49.5-43.4s-46.3 18.7-49.5 43.4c-1.3 9.7-6.5 18.4-14.4 24-8 5.7-17.9 7.7-27.5 5.7-53.3-11.2-103.5-32-149.3-61.7-8.2-5.3-13.8-13.8-15.4-23.5-1.6-9.6 0.8-19.5 6.8-27.3 15.3-19.8 13.5-48-4.2-65.7-17.8-17.8-46.1-19.5-65.9-4.1-7.7 6-17.6 8.5-27.2 6.9-9.6-1.6-18.2-7.2-23.6-15.3-30-45.8-51-96-62.4-149.4-2.1-9.6 0-19.7 5.8-27.7 5.7-8 14.6-13.2 24.3-14.4 25-3 43.9-24.3 43.9-49.6 0-25.4-19-46.7-44.2-49.6-9.8-1.1-18.6-6.3-24.4-14.3-5.8-8-7.9-18-5.9-27.6 11.1-53.5 31.9-104 61.8-150 5.4-8.3 14-13.9 23.8-15.5 9.8-1.6 19.8 1.1 27.5 7.3 19.9 16 48.4 14.4 66.5-3.7s19.7-46.8 3.6-66.6c-6.2-7.7-8.9-17.7-7.4-27.4s7.1-18.5 15.4-23.9c46-30.1 96.6-51.1 150.3-62.5 9.7-2 19.8 0.1 27.9 6 8 5.8 13.2 14.8 14.2 24.7 2.6 25.5 24 44.7 49.7 44.7 25.7 0 47-19.2 49.7-44.7 1-9.9 6.2-18.9 14.2-24.7 8-5.8 18.1-8 27.9-6 53.7 11.3 104.3 32.3 150.3 62.5 8.3 5.4 13.9 14.1 15.4 23.9 1.5 9.8-1.2 19.7-7.4 27.4-16.1 19.9-14.6 48.5 3.6 66.6 18 18 46.6 19.6 66.5 3.7 7.7-6.2 17.7-8.8 27.5-7.3 9.8 1.6 18.4 7.2 23.8 15.5 29.9 46 50.7 96.6 61.8 150.2 2 9.6-0.1 19.7-5.9 27.6-5.8 8-14.6 13.1-24.4 14.3-25.2 2.9-44.2 24.2-44.2 49.6 0 25.3 18.9 46.6 43.9 49.6 9.8 1.2 18.6 6.4 24.3 14.4s7.8 18 5.8 27.7c-11.4 53.4-32.4 103.6-62.4 149.4-5.4 8.2-13.9 13.7-23.5 15.3-9.7 1.6-19.5-0.9-27.2-6.9-19.8-15.4-48.1-13.7-65.9 4.1-17.7 17.7-19.5 46-4.2 65.7 6 7.7 8.5 17.6 6.8 27.3-1.6 9.6-7.2 18.2-15.4 23.5-45.8 29.7-96 50.5-149.3 61.7-2.9 0.4-5.3 0.6-7.7 0.6zM512 801.7c46.6 0 87.8 27 107.6 66.9 23.5-7.1 46.1-16.4 67.8-28-14.3-42.2-4.3-90.4 28.7-123.4 33.1-33.1 81.6-43.1 123.9-28.6 11.7-21.6 21.1-44.1 28.2-67.6-40.3-19.6-67.6-60.9-67.6-107.9 0-47.4 27.5-88.8 68.2-108.2-7-23.4-16.3-46-27.8-67.5-13 4.6-26.5 6.9-40.1 6.9-30.8 0-61.5-11.9-84.8-35.2-21.1-21.1-33.5-49.1-35-78.9-0.8-16 1.6-31.7 6.9-46.5-21.5-11.6-44.1-21-67.4-28.1-6.7 14.2-16.1 27-27.9 37.7-22.1 20.1-50.7 31.1-80.6 31.1s-58.5-11.1-80.6-31.1c-11.8-10.7-21.3-23.6-27.9-37.7-23.4 7.1-45.9 16.5-67.4 28.1 5.3 14.7 7.7 30.5 6.9 46.5-1.5 29.8-13.9 57.8-35 78.9-33.6 33.6-82.4 43.4-124.9 28.3-11.5 21.6-20.8 44.2-27.8 67.5 40.6 19.4 68.2 60.9 68.2 108.2 0 47-27.3 88.4-67.6 107.9 7.1 23.4 16.6 46 28.2 67.6 42.3-14.5 90.7-4.6 123.9 28.6 33 33 43 81.2 28.7 123.4 21.6 11.6 44.3 21 67.8 28 19.6-39.9 60.8-66.9 107.4-66.9z" p-id="14739"></path><path d="M512 683.6c-94.6 0-171.6-77-171.6-171.6s77-171.6 171.6-171.6 171.6 77 171.6 171.6-77 171.6-171.6 171.6z m0-273.2c-56 0-101.6 45.6-101.6 101.6 0 56 45.6 101.6 101.6 101.6 56 0 101.6-45.6 101.6-101.6 0-56-45.6-101.6-101.6-101.6z" p-id="14740"></path></svg>