<?xml version="1.0" standalone="no"?><!DOCTYPE svg PUBLIC "-//W3C//DTD SVG 1.1//EN" "http://www.w3.org/Graphics/SVG/1.1/DTD/svg11.dtd"><svg t="1566979020724" class="icon" viewBox="0 0 1024 1024" version="1.1" xmlns="http://www.w3.org/2000/svg" p-id="11807" xmlns:xlink="http://www.w3.org/1999/xlink" width="32" height="32"><defs><style type="text/css"></style></defs><path d="M256.4 928.4c-7.7 0-15.1-2.4-21.3-7-11-8.2-16.5-22.2-13.9-35.6l50.7-262.5L64.8 430.1c-10.3-9.6-14-24.4-9.5-37.7 4.5-13.3 16.4-22.8 30.4-24.2l277.5-27.7L479.1 73.7c5.7-13.1 18.6-21.6 32.9-21.6 14.3 0 27.2 8.5 32.9 21.6l115.9 266.7L938.4 368c14 1.4 25.9 10.9 30.4 24.2 4.5 13.3 0.8 28.1-9.5 37.7L752.1 623.2 803 885.7c2.6 13.5-2.8 27.5-13.9 35.7-6.2 4.6-13.6 7-21.3 7-5.8 0-11.7-1.4-16.8-4.2L512 797.3 273.2 924.2c-5.1 2.7-10.9 4.2-16.8 4.2zM512 720.8c5.8 0 11.7 1.4 16.8 4.2l189.4 100.6-40.4-208.2c-2.4-12.2 1.7-24.6 10.7-33.1l163.7-152.7-219.6-21.8c-12.9-1.3-24.2-9.5-29.4-21.4L512 178l-91.4 210.4c-5.2 11.9-16.4 20.1-29.3 21.4l-219.6 21.9 163.7 152.6c9.1 8.5 13.1 20.8 10.8 33L306 825.6 495.2 725c5.1-2.7 11-4.2 16.8-4.2z" p-id="11808"></path></svg>