<?xml version="1.0" standalone="no"?><!DOCTYPE svg PUBLIC "-//W3C//DTD SVG 1.1//EN" "http://www.w3.org/Graphics/SVG/1.1/DTD/svg11.dtd"><svg t="1566982042315" class="icon" viewBox="0 0 1024 1024" version="1.1" xmlns="http://www.w3.org/2000/svg" p-id="1102" xmlns:xlink="http://www.w3.org/1999/xlink" width="32" height="32"><defs><style type="text/css"></style></defs><path d="M910.82666667 535.14666667c17.92-23.68 27.84-52.69333333 27.84-82.88 0-47.89333333-26.77333333-93.22666667-69.86666667-118.50666667a72.18133333 72.18133333 0 0 0-36.58666667-9.92H576.42666667l6.4-131.09333333c1.49333333-31.68-9.70666667-61.76-31.46666667-84.69333334-21.86666667-22.93333333-51.30666667-35.62666667-83.09333333-35.62666666-55.46666667 0-104.53333333 37.33333333-119.25333334 90.77333333l-91.62666666 331.73333333H119.46666667c-18.88 0-34.13333333 15.25333333-34.13333334 34.13333334v388.26666666c0 18.88 15.25333333 34.13333333 34.13333334 34.13333334h641.38666666c9.81333333 0 19.41333333-1.92 28.26666667-5.76 50.77333333-21.65333333 83.52-71.25333333 83.52-126.29333334 0-13.44-1.92-26.66666667-5.76-39.46666666 17.92-23.68 27.84-52.69333333 27.84-82.88 0-13.44-1.92-26.66666667-5.76-39.46666667 17.92-23.68 27.84-52.69333333 27.84-82.88-0.21333333-13.44-2.13333333-26.77333333-5.97333333-39.57333333zM162.13333333 874.66666667V571.73333333h86.4v302.93333334h-86.4z m678.82666667-376.53333334l-23.36 20.26666667 14.82666667 27.09333333c4.90666667 8.96 7.36 18.77333333 7.36 29.12 0 17.6-7.68 34.34666667-20.90666667 45.86666667l-23.36 20.26666667 14.82666667 27.09333333c4.90666667 8.96 7.36 18.77333333 7.36 29.12 0 17.6-7.68 34.34666667-20.90666667 45.86666667l-23.36 20.26666666 14.82666667 27.09333334c4.90666667 8.96 7.36 18.77333333 7.36 29.12 0 23.89333333-14.08 45.44-35.84 55.25333333H316.8V568.32l106.13333333-384.53333333c5.54666667-20.16 24-34.34666667 45.01333334-34.45333334 8.10666667 0 16.10666667 2.34666667 22.50666666 7.14666667 10.56 7.89333333 16.21333333 19.84 15.57333334 32.53333333l-10.24 211.62666667h335.36C850.13333333 412.26666667 861.86666667 431.89333333 861.86666667 452.26666667c0 17.6-7.68 34.24-20.90666667 45.86666666z" p-id="1103"></path></svg>