<?xml version="1.0" standalone="no"?><!DOCTYPE svg PUBLIC "-//W3C//DTD SVG 1.1//EN" "http://www.w3.org/Graphics/SVG/1.1/DTD/svg11.dtd"><svg t="1566982054148" class="icon" viewBox="0 0 1024 1024" version="1.1" xmlns="http://www.w3.org/2000/svg" p-id="1234" xmlns:xlink="http://www.w3.org/1999/xlink" width="32" height="32"><defs><style type="text/css"></style></defs><path d="M910.82666667 488.85333333c3.84-12.8 5.76-26.02666667 5.76-39.46666666 0-30.18666667-9.92-59.2-27.84-82.88 3.84-12.8 5.76-26.02666667 5.76-39.46666667 0-30.18666667-9.92-59.2-27.84-82.88 3.84-12.8 5.76-26.02666667 5.76-39.46666667 0-55.04-32.74666667-104.64-83.52-126.29333333-8.85333333-3.84-18.34666667-5.76-28.26666667-5.76H119.46666667c-18.88 0-34.13333333 15.25333333-34.13333334 34.13333333v388.26666667c0 18.88 15.25333333 34.13333333 34.13333334 34.13333333h137.92l91.52 331.52C363.62666667 914.13333333 412.69333333 951.46666667 468.16 951.46666667c31.68 0 61.22666667-12.58666667 83.09333333-35.62666667 21.86666667-22.93333333 33.06666667-53.01333333 31.46666667-84.69333333l-6.4-131.09333334h255.89333333c12.90666667 0 25.49333333-3.41333333 36.58666667-9.92 43.09333333-25.06666667 69.86666667-70.50666667 69.86666667-118.4 0-30.18666667-9.92-59.2-27.84-82.88zM162.13333333 452.26666667V149.33333333h86.4v302.93333334h-86.4z m669.01333334 171.09333333H495.78666667l10.24 211.62666667c0.64 12.69333333-5.01333333 24.64-15.57333334 32.53333333-6.50666667 4.8-14.50666667 7.25333333-22.50666666 7.14666667-20.90666667-0.10666667-39.36-14.29333333-45.01333334-34.45333334L316.8 455.68V149.33333333h443.09333333c21.76 9.81333333 35.84 31.36 35.84 55.25333334 0 10.34666667-2.45333333 20.16-7.36 29.12l-14.82666666 27.09333333 23.36 20.26666667c13.33333333 11.52 20.90666667 28.26666667 20.90666666 45.86666666 0 10.34666667-2.45333333 20.16-7.36 29.12l-14.82666666 27.09333334 23.36 20.26666666c13.33333333 11.52 20.90666667 28.26666667 20.90666666 45.86666667 0 10.34666667-2.45333333 20.16-7.36 29.12l-14.93333333 27.2 23.36 20.26666667c13.33333333 11.52 20.90666667 28.26666667 20.90666667 45.86666666 0 20.37333333-11.73333333 40-30.72 51.62666667z" p-id="1235"></path></svg>