<?xml version="1.0" standalone="no"?><!DOCTYPE svg PUBLIC "-//W3C//DTD SVG 1.1//EN" "http://www.w3.org/Graphics/SVG/1.1/DTD/svg11.dtd"><svg t="1566979048111" class="icon" viewBox="0 0 1024 1024" version="1.1" xmlns="http://www.w3.org/2000/svg" p-id="12398" xmlns:xlink="http://www.w3.org/1999/xlink" width="32" height="32"><defs><style type="text/css"></style></defs><path d="M139.1 960.7c-19.3 0-35-15.7-35-35V340c0-19.3 15.7-35 35-35h128.2l0.3-4.6c4.2-58.5 29.5-113.6 71.1-155.3C385 98.8 446.5 73.3 512 73.3c54.6 0 106.2 17.6 149.3 50.8 7.4 5.7 12.2 14 13.4 23.2 1.2 9.3-1.3 18.4-7 25.8-6.7 8.7-16.8 13.7-27.8 13.7-7.8 0-15.1-2.5-21.3-7.3-30.8-23.7-67.7-36.2-106.7-36.2-43.4 0-85 16-117.2 45.2-32 28.9-52.2 68.3-56.8 111l-0.6 5.5h547.5c19.3 0 35 15.7 35 35v585.7c0 19.3-15.7 35-35 35H139.1z m35-70h675.8V375H174.1v515.7z" p-id="12399"></path><path d="M512 784.2c-19.3 0-35-15.7-35-35v-202c0-19.3 15.7-35 35-35s35 15.7 35 35v202c0 19.3-15.7 35-35 35z" p-id="12400"></path></svg>