<?xml version="1.0" standalone="no"?><!DOCTYPE svg PUBLIC "-//W3C//DTD SVG 1.1//EN" "http://www.w3.org/Graphics/SVG/1.1/DTD/svg11.dtd"><svg t="1566979155778" class="icon" viewBox="0 0 1024 1024" version="1.1" xmlns="http://www.w3.org/2000/svg" p-id="13570" xmlns:xlink="http://www.w3.org/1999/xlink" width="32" height="32"><defs><style type="text/css"></style></defs><path d="M641.4 776.8c-17.4 0-31.6-14.2-31.6-31.6v-312c0-17.4 14.2-31.6 31.6-31.6 17.4 0 31.6 14.2 31.6 31.6v312c0 17.5-14.2 31.6-31.6 31.6zM382.6 776.8c-17.4 0-31.6-14.2-31.6-31.6v-312c0-17.4 14.2-31.6 31.6-31.6s31.6 14.2 31.6 31.6v312c0 17.5-14.2 31.6-31.6 31.6z" p-id="13571"></path><path d="M191.7 946.3c-17.6 0-31.9-14.3-31.9-31.9V270.8H97.4c-16.8 0-30.5-13.7-30.5-30.5s13.7-30.5 30.5-30.5h87.3l0.6-0.1c2.1-0.5 4.4-0.8 6.7-0.8h92.1v-96.6c0-19.1 15.5-34.6 34.6-34.6h387c19.1 0 34.6 15.5 34.6 34.6v96.6h92.1c2.3 0 4.5 0.3 6.8 0.8l0.6 0.1h86.9c16.8 0 30.5 13.7 30.5 30.6 0 16.8-13.7 30.5-30.5 30.5h-62.4v643.6c0 17.6-14.3 31.9-31.9 31.9H191.7z m31.9-63.8h576.7V272.6H223.6v609.9z m129.5-673.6h317.7v-62H353.1v62z" p-id="13572"></path></svg>