<?xml version="1.0" standalone="no"?><!DOCTYPE svg PUBLIC "-//W3C//DTD SVG 1.1//EN" "http://www.w3.org/Graphics/SVG/1.1/DTD/svg11.dtd"><svg t="1566979029205" class="icon" viewBox="0 0 1024 1024" version="1.1" xmlns="http://www.w3.org/2000/svg" p-id="11954" xmlns:xlink="http://www.w3.org/1999/xlink" width="32" height="32"><defs><style type="text/css"></style></defs><path d="M126.6 962.8c-19.3 0-35-15.7-35-35V190.4c0-19.3 15.7-35 35-35h220V96.2c0-19.3 15.7-35 35-35s35 15.7 35 35v59.2h188.1V96.2c0-19.3 15.7-35 35-35s35 15.7 35 35v59.2h222.6c19.3 0 35 15.7 35 35v737.4c0 19.3-15.7 35-35 35H126.6z m35-70h700.7V421.6H161.6v471.2z m0-541.2h700.7V225.4H674.7v30.5c0 19.3-15.7 35-35 35s-35-15.7-35-35v-30.5h-188v30.5c0 19.3-15.7 35-35 35s-35-15.7-35-35v-30.5h-185v126.2z" p-id="11955"></path><path d="M255.5 718.3c-8.3 0-15-6.7-15-15v-64.2c0-8.3 6.7-15 15-15h63.9c8.3 0 15 6.7 15 15v64.2c0 8.3-6.7 15-15 15h-63.9zM479 718.3c-8.3 0-15-6.7-15-15v-64.2c0-8.3 6.7-15 15-15h64c8.3 0 15 6.7 15 15v64.2c0 8.3-6.7 15-15 15h-64zM702.6 718.3c-8.3 0-15-6.7-15-15v-64.2c0-8.3 6.7-15 15-15h63.9c8.3 0 15 6.7 15 15v64.2c0 8.3-6.7 15-15 15h-63.9z" p-id="11956"></path></svg>