<?xml version="1.0" standalone="no"?><!DOCTYPE svg PUBLIC "-//W3C//DTD SVG 1.1//EN" "http://www.w3.org/Graphics/SVG/1.1/DTD/svg11.dtd"><svg t="1566979036423" class="icon" viewBox="0 0 1024 1024" version="1.1" xmlns="http://www.w3.org/2000/svg" p-id="12102" xmlns:xlink="http://www.w3.org/1999/xlink" width="32" height="32"><defs><style type="text/css"></style></defs><path d="M512 950c-59.1 0-116.5-11.6-170.5-34.4-52.2-22.1-99-53.6-139.2-93.8-40.2-40.2-71.8-87-93.8-139.2C85.6 628.5 74 571.1 74 512s11.6-116.5 34.4-170.5c22.1-52.2 53.6-99 93.8-139.2s87-71.8 139.2-93.8C395.5 85.6 452.9 74 512 74s116.5 11.6 170.5 34.4c52.2 22.1 99 53.6 139.2 93.8 40.2 40.2 71.8 87 93.8 139.2 22.8 54 34.4 111.4 34.4 170.5 0 59.1-11.6 116.5-34.4 170.5-22.1 52.2-53.6 99-93.8 139.2-40.2 40.2-87 71.8-139.2 93.8-54 23-111.4 34.6-170.5 34.6z m0-806c-98.3 0-190.7 38.3-260.2 107.8S144 413.7 144 512c0 98.3 38.3 190.7 107.8 260.2S413.7 880 512 880s190.7-38.3 260.2-107.8S880 610.3 880 512s-38.3-190.7-107.8-260.2S610.3 144 512 144z" p-id="12103"></path><path d="M512 547c-9.3 0-18.1-3.6-24.7-10.2-6.5-6.5-10.3-15.6-10.3-24.8V249.6c0-19.3 15.7-35 35-35s35 15.7 35 35v227.3l222.5-0.8c19.2 0 34.9 15.6 35 34.9 0.1 19.3-15.6 35.1-34.9 35.1l-257.5 0.9h-0.1z" p-id="12104"></path></svg>