<?xml version="1.0" standalone="no"?><!DOCTYPE svg PUBLIC "-//W3C//DTD SVG 1.1//EN" "http://www.w3.org/Graphics/SVG/1.1/DTD/svg11.dtd"><svg t="1566985917366" class="icon" viewBox="0 0 1024 1024" version="1.1" xmlns="http://www.w3.org/2000/svg" p-id="6338" xmlns:xlink="http://www.w3.org/1999/xlink" width="32" height="32"><defs><style type="text/css"></style></defs><path d="M513 454.2m-425 0a425 425 0 1 0 850 0 425 425 0 1 0-850 0Z" fill="#F2CF3D" p-id="6339"></path><path d="M513 889.2c-58.7 0-115.7-11.5-169.3-34.2-51.8-21.9-98.3-53.3-138.3-93.2s-71.3-86.5-93.2-138.3C89.5 569.9 78 512.9 78 454.2c0-58.7 11.5-115.7 34.2-169.3 21.9-51.8 53.3-98.3 93.2-138.3s86.5-71.3 138.3-93.2C397.3 30.7 454.3 19.2 513 19.2s115.7 11.5 169.3 34.2c51.8 21.9 98.3 53.3 138.3 93.2s71.3 86.5 93.2 138.3c22.7 53.6 34.2 110.6 34.2 169.3 0 58.7-11.5 115.7-34.2 169.3-21.9 51.8-53.3 98.3-93.2 138.3s-86.5 71.3-138.3 93.2c-53.6 22.7-110.6 34.2-169.3 34.2z m0-850c-56 0-110.4 11-161.5 32.6-49.4 20.9-93.8 50.8-131.9 88.9s-68 82.5-88.9 131.9C109 343.8 98 398.2 98 454.2s11 110.4 32.6 161.5c20.9 49.4 50.8 93.8 88.9 131.9 38.1 38.1 82.5 68 131.9 88.9 51.2 21.6 105.5 32.6 161.5 32.6s110.4-11 161.5-32.6c49.4-20.9 93.8-50.8 131.9-88.9 38.1-38.1 68-82.5 88.9-131.9C917 564.6 928 510.2 928 454.2s-11-110.4-32.6-161.5c-20.9-49.4-50.8-93.8-88.9-131.9-38.1-38.1-82.5-68-131.9-88.9C623.4 50.2 569 39.2 513 39.2z" fill="#231815" p-id="6340"></path><path d="M513 420.1m-390.9 0a390.9 390.9 0 1 0 781.8 0 390.9 390.9 0 1 0-781.8 0Z" fill="#FFE20D" p-id="6341"></path><path d="M513 889.2c-58.7 0-115.7-11.5-169.3-34.2-51.8-21.9-98.3-53.3-138.3-93.2s-71.3-86.5-93.2-138.3C89.5 569.9 78 512.9 78 454.2c0-58.7 11.5-115.7 34.2-169.3 21.9-51.8 53.3-98.3 93.2-138.3s86.5-71.3 138.3-93.2C397.3 30.7 454.3 19.2 513 19.2s115.7 11.5 169.3 34.2c51.8 21.9 98.3 53.3 138.3 93.2s71.3 86.5 93.2 138.3c22.7 53.6 34.2 110.6 34.2 169.3 0 58.7-11.5 115.7-34.2 169.3-21.9 51.8-53.3 98.3-93.2 138.3s-86.5 71.3-138.3 93.2c-53.6 22.7-110.6 34.2-169.3 34.2z m0-850c-56 0-110.4 11-161.5 32.6-49.4 20.9-93.8 50.8-131.9 88.9s-68 82.5-88.9 131.9C109 343.8 98 398.2 98 454.2s11 110.4 32.6 161.5c20.9 49.4 50.8 93.8 88.9 131.9 38.1 38.1 82.5 68 131.9 88.9 51.2 21.6 105.5 32.6 161.5 32.6s110.4-11 161.5-32.6c49.4-20.9 93.8-50.8 131.9-88.9 38.1-38.1 68-82.5 88.9-131.9C917 564.6 928 510.2 928 454.2s-11-110.4-32.6-161.5c-20.9-49.4-50.8-93.8-88.9-131.9-38.1-38.1-82.5-68-131.9-88.9C623.4 50.2 569 39.2 513 39.2z" fill="#231815" p-id="6342"></path><path d="M378 131.5a135 43.7 0 1 0 270 0 135 43.7 0 1 0-270 0Z" fill="#FFF0B3" p-id="6343"></path><path d="M313.3 432.9m-35.1 0a35.1 35.1 0 1 0 70.2 0 35.1 35.1 0 1 0-70.2 0Z" fill="#231815" p-id="6344"></path><path d="M712.7 432.9m-35.1 0a35.1 35.1 0 1 0 70.2 0 35.1 35.1 0 1 0-70.2 0Z" fill="#231815" p-id="6345"></path><path d="M616.3 688.7c-1.5 0-3-0.3-4.4-1-30.8-15.1-64.1-22.8-98.9-22.8-34.8 0-68.1 7.7-98.9 22.8-5 2.4-10.9 0.4-13.4-4.6-2.4-5-0.4-11 4.6-13.4 33.6-16.5 69.8-24.8 107.7-24.8 37.9 0 74.2 8.4 107.7 24.8 5 2.4 7 8.4 4.6 13.4-1.7 3.5-5.3 5.6-9 5.6z" fill="#231815" p-id="6346"></path><path d="M229.8 559.7a50.3 31.2 0 1 0 100.6 0 50.3 31.2 0 1 0-100.6 0Z" fill="#FFA178" p-id="6347"></path><path d="M695.6 559.7a50.3 31.2 0 1 0 100.6 0 50.3 31.2 0 1 0-100.6 0Z" fill="#FFA178" p-id="6348"></path><path d="M181.2 973.9a331.8 34 0 1 0 663.6 0 331.8 34 0 1 0-663.6 0Z" fill="#E5E5E5" p-id="6349"></path><path d="M268.7 372.7c-4.5 0-8.5-3-9.7-7.5-1.4-5.4 1.9-10.8 7.2-12.2 17.7-4.5 36.3-12.2 53.9-22.2s33.8-22.1 46.7-34.9c3.9-3.9 10.2-3.9 14.1 0 3.9 3.9 3.9 10.2 0 14.1-14.2 14.1-31.7 27.3-50.9 38.2-19.1 10.9-39.5 19.2-58.9 24.2-0.8 0.2-1.6 0.3-2.4 0.3zM757.3 372.7c-0.8 0-1.7-0.1-2.5-0.3-19.4-4.9-39.7-13.3-58.9-24.2-19.1-10.9-36.7-24.1-50.9-38.2-3.9-3.9-3.9-10.2 0-14.1 3.9-3.9 10.2-3.9 14.1 0 12.9 12.9 29 24.9 46.7 34.9 17.6 10 36.3 17.7 53.9 22.2 5.4 1.4 8.6 6.8 7.2 12.2-1.1 4.5-5.1 7.5-9.6 7.5z" fill="#231815" p-id="6350"></path></svg>