<?xml version="1.0" standalone="no"?><!DOCTYPE svg PUBLIC "-//W3C//DTD SVG 1.1//EN" "http://www.w3.org/Graphics/SVG/1.1/DTD/svg11.dtd"><svg t="1557384005012" class="icon" style="" viewBox="0 0 1024 1024" version="1.1" xmlns="http://www.w3.org/2000/svg" p-id="3025" xmlns:xlink="http://www.w3.org/1999/xlink" width="32" height="32"><defs><style type="text/css"></style></defs><path d="M513 455.6m-427.6 0a427.6 427.6 0 1 0 855.2 0 427.6 427.6 0 1 0-855.2 0Z" fill="#F2CF3D" p-id="3026"></path><path d="M513 893.2c-59.1 0-116.4-11.6-170.3-34.4-52.1-22-98.9-53.6-139.1-93.8-40.2-40.2-71.7-87-93.8-139.1C87 572 75.4 514.7 75.4 455.6S87 339.2 109.8 285.3c22-52.1 53.6-98.9 93.8-139.1 40.2-40.2 87-71.7 139.1-93.8C396.6 29.6 453.9 18 513 18s116.4 11.6 170.3 34.4c52.1 22 98.9 53.6 139.1 93.8 40.2 40.2 71.7 87 93.8 139.1 22.8 54 34.4 111.3 34.4 170.3S939 572 916.2 625.9c-22 52.1-53.6 98.9-93.8 139.1s-87 71.7-139.1 93.8c-53.9 22.8-111.2 34.4-170.3 34.4zM513 38c-56.4 0-111.1 11-162.5 32.8-49.7 21-94.4 51.1-132.7 89.5s-68.5 83-89.5 132.7c-21.8 51.5-32.8 106.2-32.8 162.5s11 111.1 32.8 162.5c21 49.7 51.1 94.4 89.5 132.7 38.4 38.4 83 68.5 132.7 89.5C402 862 456.7 873 513 873c56.4 0 111.1-11 162.5-32.8 49.7-21 94.4-51.1 132.7-89.5 38.4-38.4 68.5-83 89.5-132.7 21.8-51.5 32.8-106.2 32.8-162.5s-11-111.1-32.8-162.5c-21-49.7-51.1-94.4-89.5-132.7-38.4-38.4-83-68.5-132.7-89.5C624.1 49 569.4 38 513 38z" fill="#231815" p-id="3027"></path><path d="M513 421.3m-393.3 0a393.3 393.3 0 1 0 786.6 0 393.3 393.3 0 1 0-786.6 0Z" fill="#FFE20D" p-id="3028"></path><path d="M513 893.2c-59.1 0-116.4-11.6-170.3-34.4-52.1-22-98.9-53.6-139.1-93.8-40.2-40.2-71.7-87-93.8-139.1C87 572 75.4 514.7 75.4 455.6S87 339.2 109.8 285.3c22-52.1 53.6-98.9 93.8-139.1 40.2-40.2 87-71.7 139.1-93.8C396.6 29.6 453.9 18 513 18s116.4 11.6 170.3 34.4c52.1 22 98.9 53.6 139.1 93.8 40.2 40.2 71.7 87 93.8 139.1 22.8 54 34.4 111.3 34.4 170.3S939 572 916.2 625.9c-22 52.1-53.6 98.9-93.8 139.1s-87 71.7-139.1 93.8c-53.9 22.8-111.2 34.4-170.3 34.4zM513 38c-56.4 0-111.1 11-162.5 32.8-49.7 21-94.4 51.1-132.7 89.5s-68.5 83-89.5 132.7c-21.8 51.5-32.8 106.2-32.8 162.5s11 111.1 32.8 162.5c21 49.7 51.1 94.4 89.5 132.7 38.4 38.4 83 68.5 132.7 89.5C402 862 456.7 873 513 873c56.4 0 111.1-11 162.5-32.8 49.7-21 94.4-51.1 132.7-89.5 38.4-38.4 68.5-83 89.5-132.7 21.8-51.5 32.8-106.2 32.8-162.5s-11-111.1-32.8-162.5c-21-49.7-51.1-94.4-89.5-132.7-38.4-38.4-83-68.5-132.7-89.5C624.1 49 569.4 38 513 38z" fill="#231815" p-id="3029"></path><path d="M377.2 130.9a135.8 43.9 0 1 0 271.6 0 135.8 43.9 0 1 0-271.6 0Z" fill="#FFF0B3" p-id="3030"></path><path d="M513 626.1c-69.1 0-133.9-8.2-189.6-22.5-20.1-5.2-39.1 12-34.8 31.5C310.6 735.1 402.7 810 513 810s202.4-75 224.4-174.9c4.3-19.6-14.7-36.7-34.8-31.5-55.7 14.3-120.5 22.5-189.6 22.5z" fill="#FFA6D7" p-id="3031"></path><path d="M513 820c-55.1 0-108.9-18.5-151.5-52.1-42.1-33.2-71.4-79.6-82.7-130.6-2.7-12.2 1.2-24.9 10.4-33.7 9.7-9.4 23.5-13 36.7-9.6 56.6 14.5 121.3 22.2 187.1 22.2 65.9 0 130.6-7.7 187.1-22.2 13.2-3.4 26.9 0.2 36.7 9.6 9.2 8.9 13.1 21.5 10.4 33.7-11.2 51-40.6 97.4-82.7 130.6C621.9 801.5 568.1 820 513 820zM316.1 612.7c-4.8 0-9.4 1.8-13 5.2-4.2 4.1-6 9.6-4.7 15.1 10.2 46.5 37.1 88.9 75.5 119.2C413 783 462.4 800 513 800c50.6 0 100-17 139.1-47.8 38.4-30.4 65.3-72.7 75.5-119.2 1.2-5.5-0.5-11-4.7-15.1-4.7-4.6-11.4-6.3-17.8-4.6-58.2 14.9-124.6 22.8-192.1 22.8s-133.9-7.9-192.1-22.8c-1.6-0.4-3.2-0.6-4.8-0.6z" fill="#231815" p-id="3032"></path><path d="M660.6 758.2c-39.9-32.3-91.3-51.8-147.6-51.8s-107.7 19.5-147.6 51.8C405.3 790.5 456.8 810 513 810s107.7-19.5 147.6-51.8z" fill="#FF66C1" p-id="3033"></path><path d="M513 820c-56.2 0-110.8-19.2-153.9-54.1-2.3-1.9-3.7-4.8-3.7-7.8s1.4-5.9 3.7-7.8c43-34.9 97.7-54.1 153.9-54.1s110.8 19.2 153.9 54.1c2.3 1.9 3.7 4.8 3.7 7.8s-1.4 5.9-3.7 7.8C623.8 800.8 569.2 820 513 820z m-131.1-61.8C419.7 785.3 465.7 800 513 800s93.3-14.8 131.1-41.8c-37.7-27.1-83.8-41.8-131.1-41.8s-93.3 14.7-131.1 41.8z" fill="#231815" p-id="3034"></path><path d="M228.1 561.7a50.6 31.3 0 1 0 101.2 0 50.6 31.3 0 1 0-101.2 0Z" fill="#FFA178" p-id="3035"></path><path d="M696.7 561.7a50.6 31.3 0 1 0 101.2 0 50.6 31.3 0 1 0-101.2 0Z" fill="#FFA178" p-id="3036"></path><path d="M179.1 978.4a333.9 34.2 0 1 0 667.8 0 333.9 34.2 0 1 0-667.8 0Z" fill="#E5E5E5" p-id="3037"></path><path d="M197.6 403.1h155" fill="#FFFFFF" p-id="3038"></path><path d="M352.6 413.1h-155c-5.5 0-10-4.5-10-10s4.5-10 10-10h155c5.5 0 10 4.5 10 10s-4.5 10-10 10z" fill="#231815" p-id="3039"></path><path d="M221.7 768.5c31.5 29.4 67.5 54.1 106.8 72.9V403.1H221.7v365.4z" fill="#16CEF9" p-id="3040"></path><path d="M328.5 851.4c-1.5 0-2.9-0.3-4.3-1-39.8-19.1-76.6-44.2-109.2-74.6-2-1.9-3.2-4.5-3.2-7.3V403.1c0-5.5 4.5-10 10-10h106.8c5.5 0 10 4.5 10 10v438.3c0 3.4-1.8 6.6-4.7 8.5-1.7 1-3.6 1.5-5.4 1.5z m-96.8-87.3c26.4 24.1 55.5 44.6 86.8 61.1v-412h-86.8v350.9z" fill="#231815" p-id="3041"></path><path d="M815.5 403.1h-155" fill="#FFFFFF" p-id="3042"></path><path d="M815.5 413.1h-155c-5.5 0-10-4.5-10-10s4.5-10 10-10h155c5.5 0 10 4.5 10 10s-4.5 10-10 10z" fill="#231815" p-id="3043"></path><path d="M791.4 768.5c-31.5 29.4-67.5 54.1-106.8 72.9V403.1h106.8v365.4z" fill="#16CEF9" p-id="3044"></path><path d="M684.6 851.4c-1.9 0-3.7-0.5-5.3-1.5-2.9-1.8-4.7-5-4.7-8.5V403.1c0-5.5 4.5-10 10-10h106.8c5.5 0 10 4.5 10 10v365.4c0 2.8-1.2 5.4-3.2 7.3-32.7 30.4-69.4 55.5-109.2 74.6-1.4 0.7-2.9 1-4.4 1z m10-438.3v412c31.3-16.5 60.4-37 86.8-61.1V413h-86.8z" fill="#231815" p-id="3045"></path></svg>