<?xml version="1.0" standalone="no"?><!DOCTYPE svg PUBLIC "-//W3C//DTD SVG 1.1//EN" "http://www.w3.org/Graphics/SVG/1.1/DTD/svg11.dtd"><svg t="1566985534902" class="icon" viewBox="0 0 1024 1024" version="1.1" xmlns="http://www.w3.org/2000/svg" p-id="5457" xmlns:xlink="http://www.w3.org/1999/xlink" width="32" height="32"><defs><style type="text/css"></style></defs><path d="M528.7 536.6m-350.3 0a350.3 350.3 0 1 0 700.6 0 350.3 350.3 0 1 0-700.6 0Z" fill="#F2CF3D" p-id="5458"></path><path d="M528.7 896.9c-48.6 0-95.8-9.5-140.3-28.3-42.9-18.1-81.4-44.1-114.5-77.2-33.1-33.1-59.1-71.6-77.2-114.5-18.8-44.4-28.3-91.6-28.3-140.3s9.5-95.8 28.3-140.3c18.1-42.9 44.1-81.4 77.2-114.5 33.1-33.1 71.6-59.1 114.5-77.2 44.4-18.8 91.6-28.3 140.3-28.3s95.8 9.5 140.3 28.3c42.9 18.1 81.4 44.1 114.5 77.2 33.1 33.1 59.1 71.6 77.2 114.5 18.8 44.4 28.3 91.6 28.3 140.3s-9.5 95.8-28.3 140.3c-18.1 42.9-44.1 81.4-77.2 114.5-33.1 33.1-71.6 59.1-114.5 77.2-44.5 18.8-91.7 28.3-140.3 28.3z m0-700.7c-90.9 0-176.4 35.4-240.7 99.7-64.3 64.3-99.7 149.7-99.7 240.7S223.8 713 288 777.2c64.3 64.3 149.7 99.7 240.7 99.7s176.4-35.4 240.7-99.7S869 627.5 869 536.6s-35.4-176.4-99.7-240.7c-64.2-64.2-149.7-99.7-240.6-99.7z" fill="#231815" p-id="5459"></path><path d="M528.7 508.5m-322.2 0a322.2 322.2 0 1 0 644.4 0 322.2 322.2 0 1 0-644.4 0Z" fill="#FFE20D" p-id="5460"></path><path d="M528.7 896.9c-48.6 0-95.8-9.5-140.3-28.3-42.9-18.1-81.4-44.1-114.5-77.2-33.1-33.1-59.1-71.6-77.2-114.5-18.8-44.4-28.3-91.6-28.3-140.3s9.5-95.8 28.3-140.3c18.1-42.9 44.1-81.4 77.2-114.5 33.1-33.1 71.6-59.1 114.5-77.2 44.4-18.8 91.6-28.3 140.3-28.3s95.8 9.5 140.3 28.3c42.9 18.1 81.4 44.1 114.5 77.2 33.1 33.1 59.1 71.6 77.2 114.5 18.8 44.4 28.3 91.6 28.3 140.3s-9.5 95.8-28.3 140.3c-18.1 42.9-44.1 81.4-77.2 114.5-33.1 33.1-71.6 59.1-114.5 77.2-44.5 18.8-91.7 28.3-140.3 28.3z m0-700.7c-90.9 0-176.4 35.4-240.7 99.7-64.3 64.3-99.7 149.7-99.7 240.7S223.8 713 288 777.2c64.3 64.3 149.7 99.7 240.7 99.7s176.4-35.4 240.7-99.7S869 627.5 869 536.6s-35.4-176.4-99.7-240.7c-64.2-64.2-149.7-99.7-240.6-99.7z" fill="#231815" p-id="5461"></path><path d="M417.4 270.5a111.3 36 0 1 0 222.6 0 111.3 36 0 1 0-222.6 0Z" fill="#FFF0B3" p-id="5462"></path><path d="M530.4 722.2m-123.2 0a123.2 123.2 0 1 0 246.4 0 123.2 123.2 0 1 0-246.4 0Z" fill="#FFA6D7" p-id="5463"></path><path d="M530.4 855.4c-73.5 0-133.2-59.8-133.2-133.2S456.9 589 530.4 589s133.2 59.8 133.2 133.2-59.8 133.2-133.2 133.2z m0-246.4c-62.4 0-113.2 50.8-113.2 113.2 0 62.4 50.8 113.2 113.2 113.2 62.4 0 113.2-50.8 113.2-113.2 0-62.4-50.8-113.2-113.2-113.2z" fill="#231815" p-id="5464"></path><path d="M295.2 623.5a41.5 25.7 0 1 0 83 0 41.5 25.7 0 1 0-83 0Z" fill="#FFA178" p-id="5465"></path><path d="M679.1 623.5a41.5 25.7 0 1 0 83 0 41.5 25.7 0 1 0-83 0Z" fill="#FFA178" p-id="5466"></path><path d="M255.2 965a273.5 28 0 1 0 547 0 273.5 28 0 1 0-547 0Z" fill="#E5E5E5" p-id="5467"></path><path d="M720.6 553.7c-21.3 0-38.6-17.3-38.6-38.6 0-5.5 4.5-10 10-10s10 4.5 10 10c0 10.3 8.3 18.6 18.6 18.6s18.6-8.3 18.6-18.6c0-5.5 4.5-10 10-10s10 4.5 10 10c0 21.3-17.3 38.6-38.6 38.6zM336.7 553.7c-21.3 0-38.6-17.3-38.6-38.6 0-5.5 4.5-10 10-10s10 4.5 10 10c0 10.3 8.3 18.6 18.6 18.6s18.6-8.3 18.6-18.6c0-5.5 4.5-10 10-10s10 4.5 10 10c0 21.3-17.3 38.6-38.6 38.6z" fill="#231815" p-id="5468"></path><path d="M530.4 722.2c-45.6 0-85.4 24.8-106.7 61.6 21.3 36.8 61.1 61.6 106.7 61.6s85.4-24.8 106.7-61.6c-21.3-36.8-61.1-61.6-106.7-61.6z" fill="#FF66C1" p-id="5469"></path><path d="M530.4 855.4c-47.4 0-91.6-25.5-115.3-66.6-1.8-3.1-1.8-6.9 0-10 23.8-41.1 68-66.6 115.3-66.6 47.4 0 91.6 25.5 115.3 66.6 1.8 3.1 1.8 6.9 0 10-23.8 41.1-68 66.6-115.3 66.6z m-95-71.6c20.8 32 56.7 51.6 95 51.6s74.2-19.6 95-51.6c-20.8-32-56.7-51.6-95-51.6s-74.2 19.6-95 51.6z" fill="#231815" p-id="5470"></path><path d="M347.9 156.2l-85.3 32.6s43.3-95.4 62.8-124.3c4.9-7.2 7.5-15.4 5.4-23.2 0-0.1-0.1-0.3-0.1-0.4l-0.6-1.8c0-0.1 0-0.1-0.1-0.2-0.1-0.3-0.3-0.6-0.4-1-0.1-0.3-0.3-0.7-0.4-1-0.3-0.6-0.6-1.1-0.9-1.7-0.1-0.1-0.1-0.2-0.2-0.4-6.2-10.2-19-14.9-30.5-10.5L154 79c-12.9 4.9-19.5 19.5-14.5 32.5C144.4 124.4 159 131 172 126l84-32.1-62 122.7c-6.5 7.4-7.9 17.6-4.3 26.2 0.1 0.2 0.1 0.4 0.2 0.7 4.9 12.9 19.5 19.5 32.5 14.5l143.5-54.8c12.9-4.9 19.5-19.5 14.5-32.5-5-12.9-19.6-19.5-32.5-14.5z" fill="#CDC0F9" p-id="5471"></path><path d="M213.4 269.6c-14.2 0-27.5-8.6-32.9-22.6l-0.3-0.9c-4.7-12-2.7-25.3 5.4-35.1l49.8-98.6-59.9 22.9c-18.1 6.9-38.5-2.2-45.4-20.3-6.9-18.1 2.2-38.5 20.3-45.4L294 14.9c15.9-6.1 33.8 0.1 42.6 14.6 0.1 0.1 0.2 0.3 0.3 0.5 0.4 0.6 0.8 1.4 1.3 2.4 0.2 0.4 0.3 0.7 0.5 1.1l0.2 0.4c0.2 0.4 0.4 0.8 0.5 1.2 0.1 0.2 0.1 0.3 0.2 0.5 0.3 0.8 0.5 1.6 0.7 2.2 0.1 0.3 0.2 0.5 0.2 0.7 2.7 10 0.4 20.9-6.7 31.4-13.1 19.3-37.8 70.7-51.7 100.6l62.4-23.8c18.1-6.9 38.5 2.2 45.4 20.3s-2.2 38.5-20.3 45.4l-143.5 54.8c-4.3 1.6-8.5 2.4-12.7 2.4zM199.3 240c3 7.7 11.7 11.5 19.5 8.6l143.5-54.8c7.8-3 11.7-11.7 8.7-19.5-3-7.8-11.7-11.7-19.5-8.7l-85.3 32.6c-3.8 1.4-8.1 0.5-10.9-2.5-2.8-3-3.5-7.3-1.8-11 1.8-3.9 43.9-96.6 63.6-125.7 2.6-3.8 5.4-9.5 4-14.9-0.1-0.2-0.1-0.3-0.1-0.5-0.1-0.3-0.2-0.7-0.3-1.1 0-0.1 0-0.1-0.1-0.2l-0.3-0.6-0.3-0.6c-0.1-0.3-0.3-0.6-0.6-1 0-0.1-0.1-0.2-0.2-0.3-3.9-6.2-11.5-8.8-18.3-6.3L157.6 88.3c-7.8 3-11.7 11.7-8.7 19.5 3 7.8 11.7 11.7 19.5 8.7l84.1-32.1c3.9-1.5 8.2-0.4 11 2.6 2.8 3.1 3.4 7.5 1.5 11.2l-62 122.7c-0.4 0.8-0.9 1.5-1.4 2.1-3.8 4.3-4.8 10.5-2.6 15.8 0.1 0.2 0.1 0.3 0.2 0.5 0 0.3 0 0.5 0.1 0.7z" fill="#231815" p-id="5472"></path><path d="M347.9 156.2l-85.3 32.6s43.3-95.4 62.8-124.3c4.3-6.4 6.8-13.4 5.9-20.4L142 116.3c6.3 9.6 18.8 13.9 29.9 9.7L256 93.9l-62 122.7c-6.5 7.4-7.9 17.6-4.3 26.2 0.1 0.2 0.1 0.4 0.2 0.7 4.9 12.9 19.5 19.5 32.5 14.5l143.5-54.8c12.9-4.9 19.5-19.5 14.5-32.5-5-12.9-19.6-19.5-32.5-14.5z" fill="#A698EA" p-id="5473"></path><path d="M213.4 269.6c-14.2 0-27.5-8.6-32.9-22.6l-0.3-0.9c-4.7-12-2.7-25.3 5.4-35.1l49.8-98.6-59.9 22.9c-18.1 6.9-38.5-2.2-45.4-20.3-6.9-18.1 2.2-38.5 20.3-45.4L294 14.9c15.9-6.1 33.8 0.1 42.6 14.6 0.1 0.1 0.2 0.3 0.3 0.5 0.4 0.6 0.8 1.4 1.3 2.4 0.2 0.4 0.3 0.7 0.5 1.1l0.2 0.4c0.2 0.4 0.4 0.8 0.5 1.2 0.1 0.2 0.1 0.3 0.2 0.5 0.3 0.8 0.5 1.6 0.7 2.2 0.1 0.3 0.2 0.5 0.2 0.7 2.7 10 0.4 20.9-6.7 31.4-13.1 19.3-37.8 70.7-51.7 100.6l62.4-23.8c18.1-6.9 38.5 2.2 45.4 20.3s-2.2 38.5-20.3 45.4l-143.5 54.8c-4.3 1.6-8.5 2.4-12.7 2.4zM199.3 240c3 7.7 11.7 11.5 19.5 8.6l143.5-54.8c7.8-3 11.7-11.7 8.7-19.5-3-7.8-11.7-11.7-19.5-8.7l-85.3 32.6c-3.8 1.4-8.1 0.5-10.9-2.5-2.8-3-3.5-7.3-1.8-11 1.8-3.9 43.9-96.6 63.6-125.7 2.6-3.8 5.4-9.5 4-14.9-0.1-0.2-0.1-0.3-0.1-0.5-0.1-0.3-0.2-0.7-0.3-1.1 0-0.1 0-0.1-0.1-0.2l-0.3-0.6-0.3-0.6c-0.1-0.3-0.3-0.6-0.6-1 0-0.1-0.1-0.2-0.2-0.3-3.9-6.2-11.5-8.8-18.3-6.3L157.6 88.3c-7.8 3-11.7 11.7-8.7 19.5 3 7.8 11.7 11.7 19.5 8.7l84.1-32.1c3.9-1.5 8.2-0.4 11 2.6 2.8 3.1 3.4 7.5 1.5 11.2l-62 122.7c-0.4 0.8-0.9 1.5-1.4 2.1-3.8 4.3-4.8 10.5-2.6 15.8 0.1 0.2 0.1 0.3 0.2 0.5 0 0.3 0 0.5 0.1 0.7z" fill="#231815" p-id="5474"></path><path d="M530.7 221.5l-59.1-6.9s53.8-42 73.8-52.8c5-2.7 9-6.6 10.1-11.8 0-0.1 0-0.2 0.1-0.3 0.1-0.4 0.2-0.8 0.2-1.2v-0.1-0.7-0.7-1.3-0.3c-0.5-7.7-6.5-14.3-14.4-15.2L442 118.5c-8.9-1.1-17.1 5.4-18.2 14.3-1.1 8.9 5.4 17.1 14.3 18.2l58.2 6.8-72.8 52.1c-6 2.3-9.8 7.8-10.4 13.8 0 0.1-0.1 0.3-0.1 0.4-1.1 8.9 5.4 17.1 14.3 18.2l99.4 11.7c8.9 1.1 17.1-5.4 18.2-14.3 1.2-9-5.3-17.1-14.2-18.2z" fill="#CDC0F9" p-id="5475"></path><path d="M528.8 264.2c-1 0-2.1-0.1-3.1-0.2l-99.4-11.7c-7-0.8-13.2-4.3-17.6-9.9s-6.3-12.4-5.5-19.4c0-0.2 0.1-0.4 0.1-0.7 1-9.4 6.9-17.4 15.4-21.2l50.9-36.4-32.5-3.8c-7-0.8-13.2-4.3-17.6-9.9-4.4-5.5-6.3-12.4-5.5-19.4 0.8-7 4.3-13.2 9.9-17.6 5.5-4.4 12.4-6.3 19.4-5.5l99.4 11.7c12.7 1.5 22.4 11.8 23.2 24.5v2.5c0 0.3 0 0.6-0.1 1v0.1c0 0.4 0 0.7-0.1 1.1 0 0.1 0 0.3-0.1 0.5-0.1 0.6-0.2 1.2-0.3 1.6 0 0.2-0.1 0.4-0.1 0.6-1.7 7.6-6.9 14-15.1 18.4-11.6 6.2-35.6 23.9-52.8 36.9l34.6 4.1c14.4 1.7 24.8 14.8 23.1 29.3-0.8 7-4.3 13.2-9.9 17.6-4.7 3.8-10.4 5.8-16.3 5.8zM423 225.5c-0.1 1.6 0.3 3.2 1.4 4.5 1.1 1.3 2.6 2.2 4.2 2.4l99.4 11.7c1.7 0.2 3.3-0.3 4.7-1.3 1.3-1.1 2.2-2.6 2.4-4.2 0.4-3.4-2.2-6.7-5.6-7.1l-59.1-6.9c-4-0.5-7.4-3.3-8.5-7.2-1.1-3.9 0.3-8.1 3.5-10.6 2.2-1.7 54.7-42.7 75.2-53.7 1.6-0.9 4.5-2.7 5.1-5v-0.2c0-0.2 0.1-0.3 0.1-0.5v-0.6-0.5-0.2c-0.2-3-2.6-5.5-5.6-5.8l-99.4-11.7c-1.7-0.2-3.3 0.3-4.7 1.3s-2.2 2.6-2.4 4.2c-0.2 1.7 0.3 3.3 1.3 4.7 1.1 1.3 2.6 2.2 4.2 2.4l58.2 6.8c4.1 0.5 7.5 3.4 8.5 7.4s-0.5 8.2-3.9 10.6l-72.8 52.1c-0.7 0.5-1.4 0.9-2.2 1.2-2.2 0.9-3.8 3-4 5.4 0 0.2 0 0.3-0.1 0.5 0.2 0.1 0.2 0.2 0.1 0.3z" fill="#231815" p-id="5476"></path><path d="M530.7 221.5l-59.1-6.9s53.8-42 73.8-52.8c4.4-2.4 8-5.7 9.6-10l-131.1-15.4c0.8 7.5 6.6 13.7 14.4 14.6l58.2 6.8-72.8 52.1c-6 2.3-9.8 7.8-10.4 13.8 0 0.1-0.1 0.3-0.1 0.4-1.1 8.9 5.4 17.1 14.3 18.2l99.4 11.7c8.9 1.1 17.1-5.4 18.2-14.3 1-9-5.5-17.1-14.4-18.2z" fill="#A698EA" p-id="5477"></path><path d="M528.8 264.2c-1 0-2.1-0.1-3.1-0.2l-99.4-11.7c-7-0.8-13.2-4.3-17.6-9.9s-6.3-12.4-5.5-19.4c0-0.2 0.1-0.4 0.1-0.7 1-9.4 6.9-17.4 15.4-21.2l50.9-36.4-32.5-3.8c-7-0.8-13.2-4.3-17.6-9.9-4.4-5.5-6.3-12.4-5.5-19.4 0.8-7 4.3-13.2 9.9-17.6 5.5-4.4 12.4-6.3 19.4-5.5l99.4 11.7c12.7 1.5 22.4 11.8 23.2 24.5v2.5c0 0.3 0 0.6-0.1 1v0.1c0 0.4 0 0.7-0.1 1.1 0 0.1 0 0.3-0.1 0.5-0.1 0.6-0.2 1.2-0.3 1.6 0 0.2-0.1 0.4-0.1 0.6-1.7 7.6-6.9 14-15.1 18.4-11.6 6.2-35.6 23.9-52.8 36.9l34.6 4.1c14.4 1.7 24.8 14.8 23.1 29.3-0.8 7-4.3 13.2-9.9 17.6-4.7 3.8-10.4 5.8-16.3 5.8zM423 225.5c-0.1 1.6 0.3 3.2 1.4 4.5 1.1 1.3 2.6 2.2 4.2 2.4l99.4 11.7c1.7 0.2 3.3-0.3 4.7-1.3 1.3-1.1 2.2-2.6 2.4-4.2 0.4-3.4-2.2-6.7-5.6-7.1l-59.1-6.9c-4-0.5-7.4-3.3-8.5-7.2-1.1-3.9 0.3-8.1 3.5-10.6 2.2-1.7 54.7-42.7 75.2-53.7 1.6-0.9 4.5-2.7 5.1-5v-0.2c0-0.2 0.1-0.3 0.1-0.5v-0.6-0.5-0.2c-0.2-3-2.6-5.5-5.6-5.8l-99.4-11.7c-1.7-0.2-3.3 0.3-4.7 1.3s-2.2 2.6-2.4 4.2c-0.2 1.7 0.3 3.3 1.3 4.7 1.1 1.3 2.6 2.2 4.2 2.4l58.2 6.8c4.1 0.5 7.5 3.4 8.5 7.4s-0.5 8.2-3.9 10.6l-72.8 52.1c-0.7 0.5-1.4 0.9-2.2 1.2-2.2 0.9-3.8 3-4 5.4 0 0.2 0 0.3-0.1 0.5 0.2 0.1 0.2 0.2 0.1 0.3z" fill="#231815" p-id="5478"></path><path d="M269.8 373.3l-48.3 11.3s30.3-48.3 42.9-62.4c3.2-3.5 5.2-7.7 4.6-12.1v-0.2c-0.1-0.3-0.1-0.7-0.2-1v-0.1c0-0.2-0.1-0.4-0.2-0.6-0.1-0.2-0.1-0.4-0.2-0.6-0.1-0.3-0.2-0.7-0.4-1 0-0.1-0.1-0.1-0.1-0.2-2.6-5.9-9.1-9.4-15.6-7.9L171 317.6c-7.3 1.7-11.9 9.1-10.2 16.4 1.7 7.3 9.1 11.9 16.4 10.2l47.6-11.2-42.4 61.6c-4 3.5-5.5 8.9-4.3 13.8 0 0.1 0 0.2 0.1 0.4 1.7 7.3 9.1 11.9 16.4 10.2l81.3-19.1c7.3-1.7 11.9-9.1 10.2-16.4-1.6-7.3-9-11.9-16.3-10.2z" fill="#CDC0F9" p-id="5479"></path><path d="M191.6 429.4c-10.7 0-20.5-7.4-23-18.3 0-0.2-0.1-0.4-0.1-0.6-2-8.2 0.5-16.6 6.4-22.4l27.1-39.3-22.5 5.3c-6.1 1.4-12.5 0.4-17.9-2.9-5.4-3.3-9.1-8.6-10.6-14.7s-0.4-12.5 2.9-17.9c3.3-5.4 8.6-9.1 14.7-10.6l81.3-19.1c11.1-2.6 22.5 3.1 27.1 13.6 0.1 0.1 0.1 0.3 0.2 0.4 0.2 0.4 0.4 1 0.6 1.6 0.1 0.2 0.2 0.6 0.3 0.9v0.1c0.1 0.3 0.2 0.6 0.3 1 0 0.1 0.1 0.3 0.1 0.4 0.1 0.6 0.2 1 0.3 1.4 0 0.2 0.1 0.4 0.1 0.6 0.9 6.9-1.5 13.9-7.1 20-6.7 7.5-19 25.7-28.6 40.3l24.3-5.7c6.1-1.4 12.5-0.4 17.9 2.9 5.4 3.3 9.1 8.6 10.6 14.7 3 12.7-4.9 25.5-17.6 28.4L197 428.7c-1.8 0.5-3.6 0.7-5.4 0.7z m-3.5-22.7c0.3 1.1 1.1 1.8 1.6 2.1 0.5 0.3 1.5 0.8 2.8 0.5l81.3-19.1c1.9-0.5 3.2-2.5 2.7-4.4-0.5-1.9-2.5-3.2-4.4-2.7l-48.3 11.3c-3.9 0.9-8.1-0.6-10.4-3.9s-2.5-7.7-0.3-11.1c1.3-2 30.9-49.1 43.9-63.7 1.4-1.6 2.2-3.1 2.1-4.1v-0.2-0.3c0-0.1 0-0.2-0.1-0.2l-0.1-0.2c0-0.1-0.1-0.1-0.1-0.2 0 0 0-0.1-0.1-0.1-0.7-1.6-2.5-2.4-4.2-2l-81.3 19.1c-1.9 0.5-3.2 2.5-2.7 4.4 0.3 1.3 1.2 2 1.6 2.3 0.5 0.3 1.5 0.8 2.8 0.5l47.6-11.2c4-0.9 8.2 0.7 10.5 4.1 2.3 3.4 2.3 7.9 0 11.3l-42.4 61.6c-0.5 0.7-1 1.3-1.7 1.9-1.3 1.1-1.4 2.7-1.1 3.7 0 0.2 0.1 0.3 0.1 0.5 0.2-0.1 0.2 0 0.2 0.1z" fill="#231815" p-id="5480"></path><path d="M269.8 373.3l-48.3 11.3s30.3-48.3 42.9-62.4c2.8-3.1 4.7-6.7 4.7-10.6l-107.3 25.1c2.7 5.6 9.1 8.9 15.4 7.4l47.6-11.2-42.4 61.6c-4 3.5-5.5 8.9-4.3 13.8 0 0.1 0 0.2 0.1 0.4 1.7 7.3 9.1 11.9 16.4 10.2l81.3-19.1c7.3-1.7 11.9-9.1 10.2-16.4-1.6-7.2-9-11.8-16.3-10.1z" fill="#A698EA" p-id="5481"></path><path d="M191.6 429.4c-10.7 0-20.5-7.4-23-18.3 0-0.2-0.1-0.4-0.1-0.6-2-8.2 0.5-16.6 6.4-22.4l27.1-39.3-22.5 5.3c-6.1 1.4-12.5 0.4-17.9-2.9-5.4-3.3-9.1-8.6-10.6-14.7s-0.4-12.5 2.9-17.9c3.3-5.4 8.6-9.1 14.7-10.6l81.3-19.1c11.1-2.6 22.5 3.1 27.1 13.6 0.1 0.1 0.1 0.3 0.2 0.4 0.2 0.4 0.4 1 0.6 1.6 0.1 0.2 0.2 0.6 0.3 0.9v0.1c0.1 0.3 0.2 0.6 0.3 1 0 0.1 0.1 0.3 0.1 0.4 0.1 0.6 0.2 1 0.3 1.4 0 0.2 0.1 0.4 0.1 0.6 0.9 6.9-1.5 13.9-7.1 20-6.7 7.5-19 25.7-28.6 40.3l24.3-5.7c6.1-1.4 12.5-0.4 17.9 2.9 5.4 3.3 9.1 8.6 10.6 14.7 3 12.7-4.9 25.5-17.6 28.4L197 428.7c-1.8 0.5-3.6 0.7-5.4 0.7z m-3.5-22.7c0.3 1.1 1.1 1.8 1.6 2.1 0.5 0.3 1.5 0.8 2.8 0.5l81.3-19.1c1.9-0.5 3.2-2.5 2.7-4.4-0.5-1.9-2.5-3.2-4.4-2.7l-48.3 11.3c-3.9 0.9-8.1-0.6-10.4-3.9s-2.5-7.7-0.3-11.1c1.3-2 30.9-49.1 43.9-63.7 1.4-1.6 2.2-3.1 2.1-4.1v-0.2-0.3c0-0.1 0-0.2-0.1-0.2l-0.1-0.2c0-0.1-0.1-0.1-0.1-0.2 0 0 0-0.1-0.1-0.1-0.7-1.6-2.5-2.4-4.2-2l-81.3 19.1c-1.9 0.5-3.2 2.5-2.7 4.4 0.3 1.3 1.2 2 1.6 2.3 0.5 0.3 1.5 0.8 2.8 0.5l47.6-11.2c4-0.9 8.2 0.7 10.5 4.1 2.3 3.4 2.3 7.9 0 11.3l-42.4 61.6c-0.5 0.7-1 1.3-1.7 1.9-1.3 1.1-1.4 2.7-1.1 3.7 0 0.2 0.1 0.3 0.1 0.5 0.2-0.1 0.2 0 0.2 0.1z" fill="#231815" p-id="5482"></path><path d="M642.2 767.4l-79.1 62c0 0.1-0.1 0.2-0.1 0.3v121.1c0 8.8 6.4 16.9 15.7 18.7 12.8 2.5 24.2-6.6 24.2-18.1V839.7h13.5c15 0 27.1-11.4 26.8-25.4l-1-46.9z" fill="#16CEF9" p-id="5483"></path><path d="M582.9 979.9c-2 0-4.1-0.2-6.2-0.6-13.8-2.7-23.8-14.7-23.8-28.5V829.6c0-1.5 0.4-3.1 1-4.4l0.2-0.3c0.7-1.3 1.6-2.5 2.8-3.4l79.1-62c3-2.3 7-2.8 10.4-1.2 3.4 1.6 5.6 5 5.7 8.8l1.1 47c0.2 9.1-3.3 17.8-9.8 24.4-6.9 7.1-16.8 11.2-27 11.2h-3.5v101.6c0 8.3-3.8 16.1-10.4 21.5-5.5 4.6-12.4 7.1-19.6 7.1zM573 834.3v116.4c0 4.3 3.2 8 7.6 8.9 3.4 0.7 6.8-0.1 9.2-2.2 1.2-1 3.1-3 3.1-6.1V839.7c0-5.5 4.5-10 10-10h13.5c4.9 0 9.5-1.9 12.7-5.2 2.7-2.8 4.2-6.3 4.1-10l-0.6-27-59.6 46.8z" fill="#231815" p-id="5484"></path></svg>