<?xml version="1.0" standalone="no"?><!DOCTYPE svg PUBLIC "-//W3C//DTD SVG 1.1//EN" "http://www.w3.org/Graphics/SVG/1.1/DTD/svg11.dtd"><svg t="1566985802679" class="icon" viewBox="0 0 1024 1024" version="1.1" xmlns="http://www.w3.org/2000/svg" p-id="6051" xmlns:xlink="http://www.w3.org/1999/xlink" width="32" height="32"><defs><style type="text/css"></style></defs><path d="M513 447.9m-422.1 0a422.1 422.1 0 1 0 844.2 0 422.1 422.1 0 1 0-844.2 0Z" fill="#F2CF3D" p-id="6052"></path><path d="M513 880.1c-58.3 0-114.9-11.4-168.2-34-51.5-21.8-97.7-52.9-137.4-92.6-39.7-39.7-70.8-85.9-92.6-137.4-22.5-53.3-34-109.9-34-168.2s11.4-114.9 34-168.2c21.8-51.5 52.9-97.7 92.6-137.4 39.7-39.7 85.9-70.8 137.4-92.6 53.3-22.5 109.9-34 168.2-34 58.3 0 114.9 11.4 168.2 34 51.5 21.8 97.7 52.9 137.4 92.6 39.7 39.7 70.8 85.9 92.6 137.4 22.5 53.3 34 109.9 34 168.2s-11.4 114.9-34 168.2c-21.8 51.5-52.9 97.7-92.6 137.4-39.7 39.7-85.9 70.8-137.4 92.6-53.3 22.5-109.9 34-168.2 34z m0-844.3c-55.6 0-109.6 10.9-160.4 32.4-49.1 20.8-93.2 50.5-131 88.3-37.9 37.9-67.6 81.9-88.3 131-21.5 50.8-32.4 104.8-32.4 160.4s10.9 109.6 32.4 160.4c20.8 49.1 50.5 93.2 88.3 131 37.9 37.9 81.9 67.6 131 88.3C403.4 849.1 457.4 860 513 860c55.6 0 109.6-10.9 160.4-32.4 49.1-20.8 93.2-50.5 131-88.3s67.6-81.9 88.3-131c21.5-50.8 32.4-104.8 32.4-160.4s-10.9-109.6-32.4-160.4c-20.8-49.1-50.5-93.2-88.3-131s-81.9-67.6-131-88.3C622.6 46.7 568.6 35.8 513 35.8z" fill="#231815" p-id="6053"></path><path d="M513 414.1m-388.3 0a388.3 388.3 0 1 0 776.6 0 388.3 388.3 0 1 0-776.6 0Z" fill="#FFE20D" p-id="6054"></path><path d="M513 880.1c-58.3 0-114.9-11.4-168.2-34-51.5-21.8-97.7-52.9-137.4-92.6-39.7-39.7-70.8-85.9-92.6-137.4-22.5-53.3-34-109.9-34-168.2s11.4-114.9 34-168.2c21.8-51.5 52.9-97.7 92.6-137.4 39.7-39.7 85.9-70.8 137.4-92.6 53.3-22.5 109.9-34 168.2-34 58.3 0 114.9 11.4 168.2 34 51.5 21.8 97.7 52.9 137.4 92.6 39.7 39.7 70.8 85.9 92.6 137.4 22.5 53.3 34 109.9 34 168.2s-11.4 114.9-34 168.2c-21.8 51.5-52.9 97.7-92.6 137.4-39.7 39.7-85.9 70.8-137.4 92.6-53.3 22.5-109.9 34-168.2 34z m0-844.3c-55.6 0-109.6 10.9-160.4 32.4-49.1 20.8-93.2 50.5-131 88.3-37.9 37.9-67.6 81.9-88.3 131-21.5 50.8-32.4 104.8-32.4 160.4s10.9 109.6 32.4 160.4c20.8 49.1 50.5 93.2 88.3 131 37.9 37.9 81.9 67.6 131 88.3C403.4 849.1 457.4 860 513 860c55.6 0 109.6-10.9 160.4-32.4 49.1-20.8 93.2-50.5 131-88.3s67.6-81.9 88.3-131c21.5-50.8 32.4-104.8 32.4-160.4s-10.9-109.6-32.4-160.4c-20.8-49.1-50.5-93.2-88.3-131s-81.9-67.6-131-88.3C622.6 46.7 568.6 35.8 513 35.8z" fill="#231815" p-id="6055"></path><path d="M378.9 127.3a134.1 43.4 0 1 0 268.2 0 134.1 43.4 0 1 0-268.2 0Z" fill="#FFF0B3" p-id="6056"></path><path d="M231.7 552.7a50 30.9 0 1 0 100 0 50 30.9 0 1 0-100 0Z" fill="#FFA178" p-id="6057"></path><path d="M694.3 552.7a50 30.9 0 1 0 100 0 50 30.9 0 1 0-100 0Z" fill="#FFA178" p-id="6058"></path><path d="M183.4 964.1a329.6 33.7 0 1 0 659.2 0 329.6 33.7 0 1 0-659.2 0Z" fill="#E5E5E5" p-id="6059"></path><path d="M265.8 349.7c-1.4 0-2.9 0-4.3-0.1-5.5-0.1-9.9-4.7-9.8-10.2 0.1-5.5 4.7-9.9 10.2-9.8 23 0.6 47-4 69.4-13.3 22.4-9.3 42.6-23 58.5-39.6 3.8-4 10.1-4.1 14.1-0.3s4.1 10.1 0.3 14.1c-17.8 18.7-40.4 34-65.3 44.3-23.4 9.8-48.6 14.9-73.1 14.9zM748.6 330.6c-24.4 0-49.7-5.1-73.2-14.9-24.9-10.3-47.5-25.6-65.3-44.3-3.8-4-3.7-10.3 0.3-14.1 4-3.8 10.3-3.7 14.1 0.3 15.9 16.7 36.1 30.3 58.5 39.6s46.4 13.9 69.4 13.3c5.5-0.1 10.1 4.2 10.2 9.8 0.1 5.5-4.2 10.1-9.8 10.2-1.4 0.1-2.8 0.1-4.2 0.1zM312.9 398.7c-1.1-0.3-2.3-0.5-3.6-0.5h-92.8c-7.7 0-14 6.3-14 14s6.3 14 14 14l65.9 11.8c4.5 9.5 14.1 16.2 25.3 16.2 15.5 0 28-12.6 28-28 0.1-13.7-9.8-25.1-22.8-27.5zM745.1 398.7c-1.1-0.3-2.3-0.5-3.6-0.5h-92.8c-7.7 0-14 6.3-14 14s6.3 14 14 14l65.9 11.8c4.5 9.5 14.1 16.2 25.3 16.2 15.5 0 28-12.6 28-28 0.2-13.7-9.7-25.1-22.8-27.5zM675.9 674.1H466c-5.5 0-10-4.5-10-10s4.5-10 10-10h209.9c5.5 0 10 4.5 10 10s-4.5 10-10 10z" fill="#231815" p-id="6060"></path></svg>