<?xml version="1.0" standalone="no"?><!DOCTYPE svg PUBLIC "-//W3C//DTD SVG 1.1//EN" "http://www.w3.org/Graphics/SVG/1.1/DTD/svg11.dtd"><svg t="1557383983289" class="icon" style="" viewBox="0 0 1024 1024" version="1.1" xmlns="http://www.w3.org/2000/svg" p-id="2882" xmlns:xlink="http://www.w3.org/1999/xlink" width="32" height="32"><defs><style type="text/css"></style></defs><path d="M512.3 451.5m-428.2 0a428.2 428.2 0 1 0 856.4 0 428.2 428.2 0 1 0-856.4 0Z" fill="#F2CF3D" p-id="2883"></path><path d="M512.3 889.7c-59.2 0-116.5-11.6-170.6-34.4-52.2-22.1-99-53.7-139.3-93.9-40.2-40.2-71.8-87.1-93.9-139.3-22.9-54-34.4-111.4-34.4-170.6S85.7 335 108.5 280.9c22.1-52.2 53.7-99 93.9-139.3 40.2-40.2 87.1-71.8 139.3-93.9 54-22.9 111.4-34.4 170.6-34.4 59.2 0 116.5 11.6 170.6 34.4 52.2 22.1 99 53.7 139.3 93.9 40.2 40.2 71.8 87.1 93.9 139.3 22.9 54 34.4 111.4 34.4 170.6S938.9 568 916.1 622.1c-22.1 52.2-53.7 99-93.9 139.3s-87.1 71.8-139.3 93.9c-54.1 22.8-111.5 34.4-170.6 34.4z m0-856.4c-56.5 0-111.2 11.1-162.8 32.9-49.8 21.1-94.5 51.2-132.9 89.6S148 238.9 127 288.7C105.1 340.3 94.1 395 94.1 451.5s11.1 111.2 32.9 162.8c21.1 49.8 51.2 94.5 89.6 132.9s83.1 68.6 132.9 89.6c51.6 21.8 106.3 32.9 162.8 32.9s111.2-11.1 162.8-32.9c49.8-21.1 94.5-51.2 132.9-89.6s68.6-83.1 89.6-132.9c21.8-51.6 32.9-106.3 32.9-162.8s-11.1-111.2-32.9-162.8c-21.1-49.8-51.2-94.5-89.6-132.9s-83.1-68.6-132.9-89.6c-51.6-21.9-106.4-32.9-162.8-32.9z" fill="#231815" p-id="2884"></path><path d="M512.3 417.1m-393.9 0a393.9 393.9 0 1 0 787.8 0 393.9 393.9 0 1 0-787.8 0Z" fill="#FFE20D" p-id="2885"></path><path d="M512.3 889.7c-59.2 0-116.5-11.6-170.6-34.4-52.2-22.1-99-53.7-139.3-93.9-40.2-40.2-71.8-87.1-93.9-139.3-22.9-54-34.4-111.4-34.4-170.6S85.7 335 108.5 280.9c22.1-52.2 53.7-99 93.9-139.3 40.2-40.2 87.1-71.8 139.3-93.9 54-22.9 111.4-34.4 170.6-34.4 59.2 0 116.5 11.6 170.6 34.4 52.2 22.1 99 53.7 139.3 93.9 40.2 40.2 71.8 87.1 93.9 139.3 22.9 54 34.4 111.4 34.4 170.6S938.9 568 916.1 622.1c-22.1 52.2-53.7 99-93.9 139.3s-87.1 71.8-139.3 93.9c-54.1 22.8-111.5 34.4-170.6 34.4z m0-856.4c-56.5 0-111.2 11.1-162.8 32.9-49.8 21.1-94.5 51.2-132.9 89.6S148 238.9 127 288.7C105.1 340.3 94.1 395 94.1 451.5s11.1 111.2 32.9 162.8c21.1 49.8 51.2 94.5 89.6 132.9s83.1 68.6 132.9 89.6c51.6 21.8 106.3 32.9 162.8 32.9s111.2-11.1 162.8-32.9c49.8-21.1 94.5-51.2 132.9-89.6s68.6-83.1 89.6-132.9c21.8-51.6 32.9-106.3 32.9-162.8s-11.1-111.2-32.9-162.8c-21.1-49.8-51.2-94.5-89.6-132.9s-83.1-68.6-132.9-89.6c-51.6-21.9-106.4-32.9-162.8-32.9z" fill="#231815" p-id="2886"></path><path d="M376.3 126.3a136 44 0 1 0 272 0 136 44 0 1 0-272 0Z" fill="#FFF0B3" p-id="2887"></path><path d="M227 557.7a50.7 31.4 0 1 0 101.4 0 50.7 31.4 0 1 0-101.4 0Z" fill="#FFA178" p-id="2888"></path><path d="M696.2 557.7a50.7 31.4 0 1 0 101.4 0 50.7 31.4 0 1 0-101.4 0Z" fill="#FFA178" p-id="2889"></path><path d="M183.9 975.1a334.3 34.2 0 1 0 668.6 0 334.3 34.2 0 1 0-668.6 0Z" fill="#E5E5E5" p-id="2890"></path><path d="M317 409.5m-79.2 0a79.2 79.2 0 1 0 158.4 0 79.2 79.2 0 1 0-158.4 0Z" fill="#FFFFFF" p-id="2891"></path><path d="M317 498.7c-49.2 0-89.2-40-89.2-89.2s40-89.2 89.2-89.2 89.2 40 89.2 89.2-40 89.2-89.2 89.2z m0-158.5c-38.2 0-69.2 31.1-69.2 69.2s31.1 69.2 69.2 69.2 69.2-31.1 69.2-69.2-31.1-69.2-69.2-69.2z" fill="#231815" p-id="2892"></path><path d="M707.6 409.5m-79.2 0a79.2 79.2 0 1 0 158.4 0 79.2 79.2 0 1 0-158.4 0Z" fill="#FFFFFF" p-id="2893"></path><path d="M707.6 498.7c-49.2 0-89.2-40-89.2-89.2s40-89.2 89.2-89.2 89.2 40 89.2 89.2-40 89.2-89.2 89.2z m0-158.5c-38.2 0-69.2 31.1-69.2 69.2s31.1 69.2 69.2 69.2 69.2-31.1 69.2-69.2-31-69.2-69.2-69.2z" fill="#231815" p-id="2894"></path><path d="M512.3 675.3m-42.3 0a42.3 42.3 0 1 0 84.6 0 42.3 42.3 0 1 0-84.6 0Z" fill="#FFA6D7" p-id="2895"></path><path d="M512.3 727.6c-28.8 0-52.3-23.4-52.3-52.3s23.4-52.3 52.3-52.3 52.3 23.4 52.3 52.3-23.5 52.3-52.3 52.3z m0-84.6c-17.8 0-32.3 14.5-32.3 32.3 0 17.8 14.5 32.3 32.3 32.3 17.8 0 32.3-14.5 32.3-32.3-0.1-17.8-14.5-32.3-32.3-32.3z" fill="#231815" p-id="2896"></path></svg>