<?xml version="1.0" standalone="no"?><!DOCTYPE svg PUBLIC "-//W3C//DTD SVG 1.1//EN" "http://www.w3.org/Graphics/SVG/1.1/DTD/svg11.dtd"><svg t="1566979042631" class="icon" viewBox="0 0 1024 1024" version="1.1" xmlns="http://www.w3.org/2000/svg" p-id="12250" xmlns:xlink="http://www.w3.org/1999/xlink" width="32" height="32"><defs><style type="text/css"></style></defs><path d="M512 964.3c-8.6 0-16.6-2.9-23.2-8.3-0.9-0.7-89.2-72.6-179.4-171-122.9-134.2-185.2-247.8-185.2-337.6 0-52.3 10.3-103.1 30.5-151 19.6-46.3 47.5-87.7 83.1-123.2 35.6-35.6 77-63.6 123.2-83.1 47.7-20.2 98.5-30.4 150.9-30.4 52.3 0 103.1 10.3 151 30.5 46.3 19.6 87.7 47.5 123.2 83.1 35.6 35.6 63.6 77 83.1 123.2 20.2 47.8 30.5 98.6 30.5 150.9 0 89.9-62.3 203.5-185.2 337.6-90.1 98.3-178.5 170.3-179.4 171-6.5 5.5-14.5 8.3-23.1 8.3z m0-831c-83.9 0-162.8 32.7-222.1 92.1s-92.1 138.3-92.1 222.1c0 37.4 16.7 83.7 49.5 137.7 28.1 46.1 67.2 96.6 116.4 150.2 57.4 62.7 115.5 115.3 145 141l3.3 2.9 3.3-2.9c36.5-32 91.4-82.5 145.7-141.8 49.1-53.7 88.1-104.1 115.9-149.9 32.7-53.8 49.2-100 49.2-137.3 0-83.9-32.7-162.8-92.1-222.1-59.2-59.3-138-92-222-92z" p-id="12251"></path><path d="M512 619.8c-92.1 0-167.1-75-167.1-167.1s75-167.1 167.1-167.1 167.1 75 167.1 167.1-75 167.1-167.1 167.1z m0-260.6c-51.6 0-93.5 41.9-93.5 93.5s41.9 93.5 93.5 93.5 93.5-41.9 93.5-93.5-41.9-93.5-93.5-93.5z" p-id="12252"></path></svg>