<?xml version="1.0" standalone="no"?><!DOCTYPE svg PUBLIC "-//W3C//DTD SVG 1.1//EN" "http://www.w3.org/Graphics/SVG/1.1/DTD/svg11.dtd"><svg t="1566979305587" class="icon" viewBox="0 0 1024 1024" version="1.1" xmlns="http://www.w3.org/2000/svg" p-id="14445" xmlns:xlink="http://www.w3.org/1999/xlink" width="32" height="32"><defs><style type="text/css"></style></defs><path d="M891.6 735.5c-20.8-49.1-50.5-93.1-88.3-130.9s-81.9-67.5-130.9-88.3c-10.1-4.3-20.3-8.1-30.6-11.5 13.4-8.8 26-19 37.5-30.6 44.7-44.7 69.3-104.1 69.3-167.3S724 184.1 679.3 139.5 575.2 70.1 512 70.1c-63.2 0-122.6 24.6-167.3 69.3-44.7 44.7-69.3 104.1-69.3 167.3S300 429.3 344.7 474c11.6 11.6 24.2 21.8 37.5 30.6-10.3 3.4-20.5 7.3-30.6 11.5-49.1 20.8-93.1 50.5-130.9 88.3-37.8 37.8-67.5 81.9-88.3 130.9-21.5 51-32.4 104.9-32.4 160.6 0 19.3 15.7 35 35 35h754c19.3 0 35-15.7 35-35 0-55.7-10.9-109.6-32.4-160.4zM512 140.1c91.9 0 166.6 74.8 166.6 166.6 0 91.9-74.8 166.6-166.6 166.6s-166.6-74.8-166.6-166.6S420.1 140.1 512 140.1zM171.8 860.9c7.9-78.1 42.1-150.6 98.4-206.8 64.6-64.6 150.5-100.2 241.8-100.2S689.2 589.4 753.8 654c56.3 56.3 90.5 128.7 98.4 206.8H171.8z" p-id="14446"></path></svg>