<?xml version="1.0" standalone="no"?><!DOCTYPE svg PUBLIC "-//W3C//DTD SVG 1.1//EN" "http://www.w3.org/Graphics/SVG/1.1/DTD/svg11.dtd"><svg t="1566979200400" class="icon" viewBox="0 0 1024 1024" version="1.1" xmlns="http://www.w3.org/2000/svg" p-id="14008" xmlns:xlink="http://www.w3.org/1999/xlink" width="32" height="32"><defs><style type="text/css"></style></defs><path d="M513 908c-53.6 0-105.3-10.5-153.7-31.1-47-19.8-89.2-48.3-125.5-84.6-36.2-36.2-64.6-78.4-84.6-125.5C128.5 618.1 118 566.3 118 513c0-53.6 10.5-105.3 31.1-153.7 19.8-47 48.3-89.2 84.6-125.5 36.2-36.2 78.4-64.6 125.5-84.6C407.9 128.5 459.7 118 513 118c67.9 0 135 17.5 194 50.7 24.2 13.7 47.1 30 67.8 48.4l8.3 7.4V127c0-19.3 15.7-35 35-35s35 15.7 35 35v193.9c0 11.7-5.7 22.5-15.3 29h-3.6v2.1c-5 2.7-10.6 4.1-16.3 4.1-1 0-2 0-3-0.1H624c-19.3 0-35-15.7-35-35s15.7-35 35-35h121.9l-9-8.6c-19.3-18.4-41-34.5-64.5-47.7C624 202.4 568.9 188 513 188c-86.8 0-168.5 33.8-229.8 95.2-61.4 61.3-95.2 143-95.2 229.8 0 86.8 33.8 168.5 95.2 229.8S426.2 838 513 838s168.5-33.8 229.8-95.2S838 599.8 838 513c0-19.3 15.7-35 35-35s35 15.7 35 35c0 53.6-10.5 105.3-31.1 153.7-19.8 47-48.3 89.2-84.6 125.5-36.2 36.2-78.4 64.6-125.5 84.6C618.1 897.5 566.3 908 513 908z" p-id="14009"></path></svg>