<?xml version="1.0" standalone="no"?><!DOCTYPE svg PUBLIC "-//W3C//DTD SVG 1.1//EN" "http://www.w3.org/Graphics/SVG/1.1/DTD/svg11.dtd"><svg t="1566982503663" class="icon" viewBox="0 0 1024 1024" version="1.1" xmlns="http://www.w3.org/2000/svg" p-id="1280" xmlns:xlink="http://www.w3.org/1999/xlink" width="32" height="32"><defs><style type="text/css"></style></defs><path d="M171.18216981 754.94510949c38.94943242 38.94943242 84.31620588 69.5334024 134.84095264 90.90366789 52.32873788 22.13344707 107.8933184 33.35552412 165.14965745 33.35552413s112.81973816-11.22325844 165.14847605-33.35552413c29.59041627-12.51570528 57.39692512-28.21645314 83.19624281-46.88368544l180.37666567 180.53733548c7.70388087 7.71096926 17.8036321 11.56704457 27.90456471 11.56704458 10.08911865 0 20.17941869-3.84662416 27.88093679-11.54223527 15.41130596-15.39712921 15.42311991-40.37301415 0.0248093-55.7855015L779.00313136 746.88444712c35.2268548-37.10409245 63.15032183-79.70049315 83.06392652-126.78029026 22.13226567-52.32873788 33.35552412-107.8933184 33.35552411-165.14965746s-11.22325844-112.82091955-33.35552411-165.14965744c-21.37026548-50.52356537-51.95541687-95.89033882-90.90366789-134.84095264-38.95061381-38.94943242-84.31738728-69.53458379-134.84095265-90.90484927-52.32991928-22.13344707-107.8933184-33.35552412-165.14965744-33.35552414s-112.82091955 11.22325844-165.14965745 33.35552414c-50.52474676 21.37026548-95.89152023 51.95541687-134.84095264 90.90484927s-69.5334024 84.31738728-90.90366788 134.84095264c-22.13226567 52.32873788-33.35552412 107.8933184-33.35552413 165.14965744s11.22325844 112.82091955 33.35552413 165.14965746C101.64758603 670.62772222 132.23273741 715.99567707 171.18216981 754.94510949zM226.96767131 210.74939081c65.22957812-65.22957812 151.95583108-101.15345634 244.20510859-101.15345634 92.24809611 0 178.97553046 35.92387823 244.20510859 101.15345634s101.15227495 151.95583108 101.15227496 244.20510859S780.60628523 633.93002987 715.37788849 699.159608c-65.22957812 65.22957812-151.95701249 101.15345634-244.20510859 101.15345633-92.24927752 0-178.97553046-35.92269681-244.20510859-101.15227493s-101.15227495-151.95701249-101.15227496-244.2051086S161.73809318 275.97896894 226.96767131 210.74939081z" p-id="1281"></path></svg>